<mxfile host="app.diagrams.net" agent="Mozilla/5.0 (Macintosh; Intel Mac OS X 10_15_7) AppleWebKit/537.36 (KHTML, like Gecko) Chrome/134.0.0.0 Safari/537.36" version="26.2.9">
  <diagram name="Side-1" id="fOe0YeEbTULWRCOPE733">
    <mxGraphModel dx="2015" dy="1963" grid="1" gridSize="10" guides="1" tooltips="1" connect="1" arrows="1" fold="1" page="1" pageScale="1" pageWidth="827" pageHeight="1169" math="0" shadow="0">
      <root>
        <mxCell id="0" />
        <mxCell id="1" parent="0" />
        <mxCell id="rglBFYH67fZG_Xi9d9ff-1" value="" style="shape=image;verticalLabelPosition=bottom;labelBackgroundColor=default;verticalAlign=top;aspect=fixed;imageAspect=0;editableCssRules=.*;image=data:image/svg+xml,PHN2ZyB4bWxucz0iaHR0cDovL3d3dy53My5vcmcvMjAwMC9zdmciIGlkPSJleHBvcnQtc3ZnIiB3aWR0aD0iOTE2LjI0NTMxMjUiIGNsYXNzPSJlckRpYWdyYW0iIHN0eWxlPSJtYXgtd2lkdGg6IDkzMC45NDUzMTI1cHg7IiB2aWV3Qm94PSI3LjM1IDcuMzUgOTE2LjI0NTMxMjUgMzM0LjczNzUiIHJvbGU9ImdyYXBoaWNzLWRvY3VtZW50IGRvY3VtZW50IiBhcmlhLXJvbGVkZXNjcmlwdGlvbj0iZXIiIGhlaWdodD0iMzM0LjczNzUiPjxzdHlsZT5AaW1wb3J0IHVybCgiaHR0cHM6Ly9jZG5qcy5jbG91ZGZsYXJlLmNvbS9hamF4L2xpYnMvZm9udC1hd2Vzb21lLzYuMi4wL2Nzcy9hbGwubWluLmNzcyIpOyBwIHttYXJnaW46IDA7fTwvc3R5bGU+PHN0eWxlPiNleHBvcnQtc3Zne2ZvbnQtZmFtaWx5OmFyaWFsLHNhbnMtc2VyaWY7Zm9udC1zaXplOjE0cHg7ZmlsbDojMzMzO31Aa2V5ZnJhbWVzIGVkZ2UtYW5pbWF0aW9uLWZyYW1le2Zyb217c3Ryb2tlLWRhc2hvZmZzZXQ6MDt9fUBrZXlmcmFtZXMgZGFzaHt0b3tzdHJva2UtZGFzaG9mZnNldDowO319I2V4cG9ydC1zdmcgLmVkZ2UtYW5pbWF0aW9uLXNsb3d7c3Ryb2tlLWRhc2hhcnJheTo5LDUhaW1wb3J0YW50O3N0cm9rZS1kYXNob2Zmc2V0OjkwMDthbmltYXRpb246ZGFzaCA1MHMgbGluZWFyIGluZmluaXRlO3N0cm9rZS1saW5lY2FwOnJvdW5kO30jZXhwb3J0LXN2ZyAuZWRnZS1hbmltYXRpb24tZmFzdHtzdHJva2UtZGFzaGFycmF5OjksNSFpbXBvcnRhbnQ7c3Ryb2tlLWRhc2hvZmZzZXQ6OTAwO2FuaW1hdGlvbjpkYXNoIDIwcyBsaW5lYXIgaW5maW5pdGU7c3Ryb2tlLWxpbmVjYXA6cm91bmQ7fSNleHBvcnQtc3ZnIC5lcnJvci1pY29ue2ZpbGw6I2ZmZmZmZjt9I2V4cG9ydC1zdmcgLmVycm9yLXRleHR7ZmlsbDojMDAwMDAwO3N0cm9rZTojMDAwMDAwO30jZXhwb3J0LXN2ZyAuZWRnZS10aGlja25lc3Mtbm9ybWFse3N0cm9rZS13aWR0aDoycHg7fSNleHBvcnQtc3ZnIC5lZGdlLXRoaWNrbmVzcy10aGlja3tzdHJva2Utd2lkdGg6My41cHg7fSNleHBvcnQtc3ZnIC5lZGdlLXBhdHRlcm4tc29saWR7c3Ryb2tlLWRhc2hhcnJheTowO30jZXhwb3J0LXN2ZyAuZWRnZS10aGlja25lc3MtaW52aXNpYmxle3N0cm9rZS13aWR0aDowO2ZpbGw6bm9uZTt9I2V4cG9ydC1zdmcgLmVkZ2UtcGF0dGVybi1kYXNoZWR7c3Ryb2tlLWRhc2hhcnJheTozO30jZXhwb3J0LXN2ZyAuZWRnZS1wYXR0ZXJuLWRvdHRlZHtzdHJva2UtZGFzaGFycmF5OjI7fSNleHBvcnQtc3ZnIC5tYXJrZXJ7ZmlsbDojMDAwMDAwO3N0cm9rZTojMDAwMDAwO30jZXhwb3J0LXN2ZyAubWFya2VyLmNyb3Nze3N0cm9rZTojMDAwMDAwO30jZXhwb3J0LXN2ZyBzdmd7Zm9udC1mYW1pbHk6YXJpYWwsc2Fucy1zZXJpZjtmb250LXNpemU6MTRweDt9I2V4cG9ydC1zdmcgcHttYXJnaW46MDt9I2V4cG9ydC1zdmcgLmVudGl0eUJveHtmaWxsOiNmZmZmZmY7c3Ryb2tlOiMwMDAwMDA7fSNleHBvcnQtc3ZnIC5yZWxhdGlvbnNoaXBMYWJlbEJveHtmaWxsOiNmZmZmZmY7b3BhY2l0eTowLjc7YmFja2dyb3VuZC1jb2xvcjojZmZmZmZmO30jZXhwb3J0LXN2ZyAucmVsYXRpb25zaGlwTGFiZWxCb3ggcmVjdHtvcGFjaXR5OjAuNTt9I2V4cG9ydC1zdmcgLmxhYmVsQmtne2JhY2tncm91bmQtY29sb3I6cmdiYSgyNTUsIDI1NSwgMjU1LCAwLjUpO30jZXhwb3J0LXN2ZyAuZWRnZUxhYmVsIC5sYWJlbHtmaWxsOiMwMDAwMDA7Zm9udC1zaXplOjE0cHg7fSNleHBvcnQtc3ZnIC5sYWJlbHtmb250LWZhbWlseTphcmlhbCxzYW5zLXNlcmlmO2NvbG9yOiMzMzM7fSNleHBvcnQtc3ZnIC5lZGdlLXBhdHRlcm4tZGFzaGVke3N0cm9rZS1kYXNoYXJyYXk6OCw4O30jZXhwb3J0LXN2ZyAubm9kZSByZWN0LCNleHBvcnQtc3ZnIC5ub2RlIGNpcmNsZSwjZXhwb3J0LXN2ZyAubm9kZSBlbGxpcHNlLCNleHBvcnQtc3ZnIC5ub2RlIHBvbHlnb257ZmlsbDojZmZmZmZmO3N0cm9rZTojMDAwMDAwO3N0cm9rZS13aWR0aDoxcHg7fSNleHBvcnQtc3ZnIC5yZWxhdGlvbnNoaXBMaW5le3N0cm9rZTojMDAwMDAwO3N0cm9rZS13aWR0aDoxO2ZpbGw6bm9uZTt9I2V4cG9ydC1zdmcgLm1hcmtlcntmaWxsOm5vbmUhaW1wb3J0YW50O3N0cm9rZTojMDAwMDAwIWltcG9ydGFudDtzdHJva2Utd2lkdGg6MTt9I2V4cG9ydC1zdmcgLm5vZGUgLm5lby1ub2Rle3N0cm9rZTojMDAwMDAwO30jZXhwb3J0LXN2ZyBbZGF0YS1sb29rPSJuZW8iXS5ub2RlIHJlY3QsI2V4cG9ydC1zdmcgW2RhdGEtbG9vaz0ibmVvIl0uY2x1c3RlciByZWN0LCNleHBvcnQtc3ZnIFtkYXRhLWxvb2s9Im5lbyJdLm5vZGUgcG9seWdvbntzdHJva2U6dXJsKCNleHBvcnQtc3ZnLWdyYWRpZW50KTtmaWx0ZXI6ZHJvcC1zaGFkb3coIDBweCAxcHggMnB4IHJnYmEoMCwgMCwgMCwgMC4yNSkpO30jZXhwb3J0LXN2ZyBbZGF0YS1sb29rPSJuZW8iXS5ub2RlIHBhdGh7c3Ryb2tlOnVybCgjZXhwb3J0LXN2Zy1ncmFkaWVudCk7fSNleHBvcnQtc3ZnIFtkYXRhLWxvb2s9Im5lbyJdLm5vZGUgLm91dGVyLXBhdGh7ZmlsdGVyOmRyb3Atc2hhZG93KCAwcHggMXB4IDJweCByZ2JhKDAsIDAsIDAsIDAuMjUpKTt9I2V4cG9ydC1zdmcgW2RhdGEtbG9vaz0ibmVvIl0ubm9kZSAubmVvLWxpbmUgcGF0aHtzdHJva2U6IzAwMDAwMDtmaWx0ZXI6bm9uZTt9I2V4cG9ydC1zdmcgW2RhdGEtbG9vaz0ibmVvIl0ubm9kZSBjaXJjbGV7c3Ryb2tlOnVybCgjZXhwb3J0LXN2Zy1ncmFkaWVudCk7ZmlsdGVyOmRyb3Atc2hhZG93KCAwcHggMXB4IDJweCByZ2JhKDAsIDAsIDAsIDAuMjUpKTt9I2V4cG9ydC1zdmcgW2RhdGEtbG9vaz0ibmVvIl0ubm9kZSBjaXJjbGUgLnN0YXRlLXN0YXJ0e2ZpbGw6IzAwMDAwMDt9I2V4cG9ydC1zdmcgW2RhdGEtbG9vaz0ibmVvIl0uc3RhdGVkaWFncmFtLWNsdXN0ZXIgcmVjdHtmaWxsOiNmZmZmZmY7c3Ryb2tlOnVybCgjZXhwb3J0LXN2Zy1ncmFkaWVudCk7c3Ryb2tlLXdpZHRoOjFweDt9I2V4cG9ydC1zdmcgW2RhdGEtbG9vaz0ibmVvIl0uaWNvbi1zaGFwZSAuaWNvbntmaWxsOnVybCgjZXhwb3J0LXN2Zy1ncmFkaWVudCk7ZmlsdGVyOmRyb3Atc2hhZG93KCAwcHggMXB4IDJweCByZ2JhKDAsIDAsIDAsIDAuMjUpKTt9I2V4cG9ydC1zdmcgW2RhdGEtbG9vaz0ibmVvIl0uaWNvbi1zaGFwZSAuaWNvbi1uZW8gcGF0aHtzdHJva2U6dXJsKCNleHBvcnQtc3ZnLWdyYWRpZW50KTtmaWx0ZXI6ZHJvcC1zaGFkb3coIDBweCAxcHggMnB4IHJnYmEoMCwgMCwgMCwgMC4yNSkpO30jZXhwb3J0LXN2ZyA6cm9vdHstLW1lcm1haWQtZm9udC1mYW1pbHk6InRyZWJ1Y2hldCBtcyIsdmVyZGFuYSxhcmlhbCxzYW5zLXNlcmlmO308L3N0eWxlPjxnPjxkZWZzPjxtYXJrZXIgaWQ9ImV4cG9ydC1zdmdfZXItb25seU9uZVN0YXJ0IiBjbGFzcz0ibWFya2VyIG9ubHlPbmUgZXIiIHJlZlg9IjAiIHJlZlk9IjkiIG1hcmtlcldpZHRoPSIxOCIgbWFya2VySGVpZ2h0PSIxOCIgb3JpZW50PSJhdXRvIj48cGF0aCBkPSJNOSwwIEw5LDE4IE0xNSwwIEwxNSwxOCIvPjwvbWFya2VyPjwvZGVmcz48ZGVmcz48bWFya2VyIGlkPSJleHBvcnQtc3ZnX2VyLW9ubHlPbmVFbmQiIGNsYXNzPSJtYXJrZXIgb25seU9uZSBlciIgcmVmWD0iMTgiIHJlZlk9IjkiIG1hcmtlcldpZHRoPSIxOCIgbWFya2VySGVpZ2h0PSIxOCIgb3JpZW50PSJhdXRvIj48cGF0aCBkPSJNMywwIEwzLDE4IE05LDAgTDksMTgiLz48L21hcmtlcj48L2RlZnM+PGRlZnM+PG1hcmtlciBpZD0iZXhwb3J0LXN2Z19lci16ZXJvT3JPbmVTdGFydCIgY2xhc3M9Im1hcmtlciB6ZXJvT3JPbmUgZXIiIHJlZlg9IjAiIHJlZlk9IjkiIG1hcmtlcldpZHRoPSIzMCIgbWFya2VySGVpZ2h0PSIxOCIgb3JpZW50PSJhdXRvIj48Y2lyY2xlIGZpbGw9IndoaXRlIiBjeD0iMjEiIGN5PSI5IiByPSI2Ii8+PHBhdGggZD0iTTksMCBMOSwxOCIvPjwvbWFya2VyPjwvZGVmcz48ZGVmcz48bWFya2VyIGlkPSJleHBvcnQtc3ZnX2VyLXplcm9Pck9uZUVuZCIgY2xhc3M9Im1hcmtlciB6ZXJvT3JPbmUgZXIiIHJlZlg9IjMwIiByZWZZPSI5IiBtYXJrZXJXaWR0aD0iMzAiIG1hcmtlckhlaWdodD0iMTgiIG9yaWVudD0iYXV0byI+PGNpcmNsZSBmaWxsPSJ3aGl0ZSIgY3g9IjkiIGN5PSI5IiByPSI2Ii8+PHBhdGggZD0iTTIxLDAgTDIxLDE4Ii8+PC9tYXJrZXI+PC9kZWZzPjxkZWZzPjxtYXJrZXIgaWQ9ImV4cG9ydC1zdmdfZXItb25lT3JNb3JlU3RhcnQiIGNsYXNzPSJtYXJrZXIgb25lT3JNb3JlIGVyIiByZWZYPSIxOCIgcmVmWT0iMTgiIG1hcmtlcldpZHRoPSI0NSIgbWFya2VySGVpZ2h0PSIzNiIgb3JpZW50PSJhdXRvIj48cGF0aCBkPSJNMCwxOCBRIDE4LDAgMzYsMTggUSAxOCwzNiAwLDE4IE00Miw5IEw0MiwyNyIvPjwvbWFya2VyPjwvZGVmcz48ZGVmcz48bWFya2VyIGlkPSJleHBvcnQtc3ZnX2VyLW9uZU9yTW9yZUVuZCIgY2xhc3M9Im1hcmtlciBvbmVPck1vcmUgZXIiIHJlZlg9IjI3IiByZWZZPSIxOCIgbWFya2VyV2lkdGg9IjQ1IiBtYXJrZXJIZWlnaHQ9IjM2IiBvcmllbnQ9ImF1dG8iPjxwYXRoIGQ9Ik0zLDkgTDMsMjcgTTksMTggUTI3LDAgNDUsMTggUTI3LDM2IDksMTgiLz48L21hcmtlcj48L2RlZnM+PGRlZnM+PG1hcmtlciBpZD0iZXhwb3J0LXN2Z19lci16ZXJvT3JNb3JlU3RhcnQiIGNsYXNzPSJtYXJrZXIgemVyb09yTW9yZSBlciIgcmVmWD0iMTgiIHJlZlk9IjE4IiBtYXJrZXJXaWR0aD0iNTciIG1hcmtlckhlaWdodD0iMzYiIG9yaWVudD0iYXV0byI+PGNpcmNsZSBmaWxsPSJ3aGl0ZSIgY3g9IjQ4IiBjeT0iMTgiIHI9IjYiLz48cGF0aCBkPSJNMCwxOCBRMTgsMCAzNiwxOCBRMTgsMzYgMCwxOCIvPjwvbWFya2VyPjwvZGVmcz48ZGVmcz48bWFya2VyIGlkPSJleHBvcnQtc3ZnX2VyLXplcm9Pck1vcmVFbmQiIGNsYXNzPSJtYXJrZXIgemVyb09yTW9yZSBlciIgcmVmWD0iMzkiIHJlZlk9IjE4IiBtYXJrZXJXaWR0aD0iNTciIG1hcmtlckhlaWdodD0iMzYiIG9yaWVudD0iYXV0byI+PGNpcmNsZSBmaWxsPSJ3aGl0ZSIgY3g9IjkiIGN5PSIxOCIgcj0iNiIvPjxwYXRoIGQ9Ik0yMSwxOCBRMzksMCA1NywxOCBRMzksMzYgMjEsMTgiLz48L21hcmtlcj48L2RlZnM+PGcgY2xhc3M9InJvb3QiPjxnIGNsYXNzPSJjbHVzdGVycyIvPjxnIGNsYXNzPSJlZGdlUGF0aHMiPjxwYXRoIGQ9Ik03MzIuNzczLDIwNi43MzhMNzIzLjM4MywyMTIuNjI2QzcxMy45OTIsMjE4LjUxMyw2OTUuMjExLDIzMC4yODgsNjc2LjQzLDIzNi4xNzVDNjU3LjY0OCwyNDIuMDYzLDYzOC44NjcsMjQyLjA2Myw2MjkuNDc3LDI0Mi4wNjNMNjIwLjA4NiwyNDIuMDYzIiBpZD0iaWRfZW50aXR5LVVzZXJFbnRpdHktMF9lbnRpdHktV2lzaExpc3QtMV8wIiBjbGFzcz0iZWRnZS10aGlja25lc3Mtbm9ybWFsIGVkZ2UtcGF0dGVybi1zb2xpZCByZWxhdGlvbnNoaXBMaW5lIiBzdHlsZT0ic3Ryb2tlLWRhc2hhcnJheTogMCAwIDEyMC42NTk2NDUwODA1NjY0IDA7IHN0cm9rZS1kYXNob2Zmc2V0OiAwO3VuZGVmaW5lZDs7O3VuZGVmaW5lZCIgZGF0YS1lZGdlPSJ0cnVlIiBkYXRhLWV0PSJlZGdlIiBkYXRhLWlkPSJpZF9lbnRpdHktVXNlckVudGl0eS0wX2VudGl0eS1XaXNoTGlzdC0xXzAiIGRhdGEtcG9pbnRzPSJXM3NpZUNJNk56TXlMamMzTXpRek56VXNJbmtpT2pJd05pNDNNemd5T0RVME9ESXhNak0xZlN4N0luZ2lPalkzTmk0ME1qazJPRGMxTENKNUlqb3lOREl1TURZeU5YMHNleUo0SWpvMk1qQXVNRGcxT1RNM05Td2llU0k2TWpReUxqQTJNalY5WFE9PSIgbWFya2VyLXN0YXJ0PSJ1cmwoI2V4cG9ydC1zdmdfZXItemVyb09yTW9yZVN0YXJ0KSIgbWFya2VyLWVuZD0idXJsKCNleHBvcnQtc3ZnX2VyLW9ubHlPbmVFbmQpIi8+PHBhdGggZD0iTTczMi43NzMsODcuNTEyTDcyMy4zODMsODEuNjI0QzcxMy45OTIsNzUuNzM3LDY5NS4yMTEsNjMuOTYyLDY1NS43ODUsNTguMDc1QzYxNi4zNTksNTIuMTg4LDU1Ni4yODksNTIuMTg4LDQ5NC41OTcsNTIuMTg4QzQzMi45MDUsNTIuMTg4LDM2OS41OTEsNTIuMTg4LDMyNi45MjIsNTcuOTI2QzI4NC4yNTMsNjMuNjY1LDI2Mi4yMjgsNzUuMTQzLDI1MS4yMTUsODAuODgyTDI0MC4yMDMsODYuNjIxIiBpZD0iaWRfZW50aXR5LVVzZXJFbnRpdHktMF9lbnRpdHktV2lzaExpc3RJdGVtLTJfMSIgY2xhc3M9ImVkZ2UtdGhpY2tuZXNzLW5vcm1hbCBlZGdlLXBhdHRlcm4tc29saWQgcmVsYXRpb25zaGlwTGluZSIgc3R5bGU9InN0cm9rZS1kYXNoYXJyYXk6IDAgMCA1MDQuNTAxMjIwNzAzMTI1IDA7IHN0cm9rZS1kYXNob2Zmc2V0OiAwO3VuZGVmaW5lZDs7O3VuZGVmaW5lZCIgZGF0YS1lZGdlPSJ0cnVlIiBkYXRhLWV0PSJlZGdlIiBkYXRhLWlkPSJpZF9lbnRpdHktVXNlckVudGl0eS0wX2VudGl0eS1XaXNoTGlzdEl0ZW0tMl8xIiBkYXRhLXBvaW50cz0iVzNzaWVDSTZOek15TGpjM016UXpOelVzSW5raU9qZzNMalV4TVRjeE5EVXhOemczTmpWOUxIc2llQ0k2TmpjMkxqUXlPVFk0TnpVc0lua2lPalV5TGpFNE56VjlMSHNpZUNJNk5EazJMakl4T0RjMUxDSjVJam8xTWk0eE9EYzFmU3g3SW5naU9qTXdOaTR5Tnpjek5ETTNOU3dpZVNJNk5USXVNVGczTlgwc2V5SjRJam95TkRBdU1qQXpNVEkxTENKNUlqbzROaTQyTWpBNE5ESTRPVEk1T0RFNU4zMWQiIG1hcmtlci1zdGFydD0idXJsKCNleHBvcnQtc3ZnX2VyLXplcm9Pck1vcmVTdGFydCkiIG1hcmtlci1lbmQ9InVybCgjZXhwb3J0LXN2Z19lci1vbmx5T25lRW5kKSIvPjxwYXRoIGQ9Ik0zNzIuMzUyLDI0Mi4wNjNMMzYxLjMzOSwyNDIuMDYzQzM1MC4zMjcsMjQyLjA2MywzMjguMzAyLDI0Mi4wNjMsMzA2LjI3NywyMzYuMzI0QzI4NC4yNTMsMjMwLjU4NSwyNjIuMjI4LDIxOS4xMDcsMjUxLjIxNSwyMTMuMzY4TDI0MC4yMDMsMjA3LjYyOSIgaWQ9ImlkX2VudGl0eS1XaXNoTGlzdC0xX2VudGl0eS1XaXNoTGlzdEl0ZW0tMl8yIiBjbGFzcz0iZWRnZS10aGlja25lc3Mtbm9ybWFsIGVkZ2UtcGF0dGVybi1zb2xpZCByZWxhdGlvbnNoaXBMaW5lIiBzdHlsZT0ic3Ryb2tlLWRhc2hhcnJheTogMCAwIDEzOC43MzI0OTgxNjg5NDUzIDA7IHN0cm9rZS1kYXNob2Zmc2V0OiAwO3VuZGVmaW5lZDs7O3VuZGVmaW5lZCIgZGF0YS1lZGdlPSJ0cnVlIiBkYXRhLWV0PSJlZGdlIiBkYXRhLWlkPSJpZF9lbnRpdHktV2lzaExpc3QtMV9lbnRpdHktV2lzaExpc3RJdGVtLTJfMiIgZGF0YS1wb2ludHM9Ilczc2llQ0k2TXpjeUxqTTFNVFUyTWpVc0lua2lPakkwTWk0d05qSTFmU3g3SW5naU9qTXdOaTR5Tnpjek5ETTNOU3dpZVNJNk1qUXlMakEyTWpWOUxIc2llQ0k2TWpRd0xqSXdNekV5TlN3aWVTSTZNakEzTGpZeU9URTFOekV3TnpBeE9EQTFmVjA9IiBtYXJrZXItc3RhcnQ9InVybCgjZXhwb3J0LXN2Z19lci16ZXJvT3JNb3JlU3RhcnQpIiBtYXJrZXItZW5kPSJ1cmwoI2V4cG9ydC1zdmdfZXItb25seU9uZUVuZCkiLz48L2c+PGcgY2xhc3M9ImVkZ2VMYWJlbHMiPjxnIGNsYXNzPSJlZGdlTGFiZWwiIHRyYW5zZm9ybT0idHJhbnNsYXRlKDY3Ni40Mjk2ODc1LCAyNDIuMDYyNSkiPjxnIGNsYXNzPSJsYWJlbCIgZGF0YS1pZD0iaWRfZW50aXR5LVVzZXJFbnRpdHktMF9lbnRpdHktV2lzaExpc3QtMV8wIiB0cmFuc2Zvcm09InRyYW5zbGF0ZSgtMTYuMzQzNzUsIC0xMC41KSI+PGZvcmVpZ25PYmplY3Qgd2lkdGg9IjMyLjY4NzUiIGhlaWdodD0iMjEiPjxkaXYgeG1sbnM9Imh0dHA6Ly93d3cudzMub3JnLzE5OTkveGh0bWwiIHN0eWxlPSJkaXNwbGF5OiB0YWJsZS1jZWxsOyB3aGl0ZS1zcGFjZTogbm9ybWFsOyBsaW5lLWhlaWdodDogMS41OyBtYXgtd2lkdGg6IDIwMHB4OyB0ZXh0LWFsaWduOiBjZW50ZXI7IiBjbGFzcz0ibGFiZWxCa2ciPjxzcGFuIGNsYXNzPSJlZGdlTGFiZWwiPjxwPm93bnM8L3A+PC9zcGFuPjwvZGl2PjwvZm9yZWlnbk9iamVjdD48L2c+PC9nPjxnIGNsYXNzPSJlZGdlTGFiZWwiIHRyYW5zZm9ybT0idHJhbnNsYXRlKDQ5Ni4yMTg3NSwgNTIuMTg3NSkiPjxnIGNsYXNzPSJsYWJlbCIgZGF0YS1pZD0iaWRfZW50aXR5LVVzZXJFbnRpdHktMF9lbnRpdHktV2lzaExpc3RJdGVtLTJfMSIgdHJhbnNmb3JtPSJ0cmFuc2xhdGUoLTExLjI4OTA2MjUsIC0xMC41KSI+PGZvcmVpZ25PYmplY3Qgd2lkdGg9IjIyLjU3ODEyNSIgaGVpZ2h0PSIyMSI+PGRpdiB4bWxucz0iaHR0cDovL3d3dy53My5vcmcvMTk5OS94aHRtbCIgc3R5bGU9ImRpc3BsYXk6IHRhYmxlLWNlbGw7IHdoaXRlLXNwYWNlOiBub3JtYWw7IGxpbmUtaGVpZ2h0OiAxLjU7IG1heC13aWR0aDogMjAwcHg7IHRleHQtYWxpZ246IGNlbnRlcjsiIGNsYXNzPSJsYWJlbEJrZyI+PHNwYW4gY2xhc3M9ImVkZ2VMYWJlbCI+PHA+aGFzPC9wPjwvc3Bhbj48L2Rpdj48L2ZvcmVpZ25PYmplY3Q+PC9nPjwvZz48ZyBjbGFzcz0iZWRnZUxhYmVsIiB0cmFuc2Zvcm09InRyYW5zbGF0ZSgzMDYuMjc3MzQzNzUsIDI0Mi4wNjI1KSI+PGcgY2xhc3M9ImxhYmVsIiBkYXRhLWlkPSJpZF9lbnRpdHktV2lzaExpc3QtMV9lbnRpdHktV2lzaExpc3RJdGVtLTJfMiIgdHJhbnNmb3JtPSJ0cmFuc2xhdGUoLTI2LjA3NDIxODc1LCAtMTAuNSkiPjxmb3JlaWduT2JqZWN0IHdpZHRoPSI1Mi4xNDg0Mzc1IiBoZWlnaHQ9IjIxIj48ZGl2IHhtbG5zPSJodHRwOi8vd3d3LnczLm9yZy8xOTk5L3hodG1sIiBzdHlsZT0iZGlzcGxheTogdGFibGUtY2VsbDsgd2hpdGUtc3BhY2U6IG5vcm1hbDsgbGluZS1oZWlnaHQ6IDEuNTsgbWF4LXdpZHRoOiAyMDBweDsgdGV4dC1hbGlnbjogY2VudGVyOyIgY2xhc3M9ImxhYmVsQmtnIj48c3BhbiBjbGFzcz0iZWRnZUxhYmVsIj48cD5jb250YWluczwvcD48L3NwYW4+PC9kaXY+PC9mb3JlaWduT2JqZWN0PjwvZz48L2c+PC9nPjxnIGNsYXNzPSJub2RlcyI+PGcgY2xhc3M9Im5vZGUgZGVmYXVsdCIgaWQ9ImVudGl0eS1Vc2VyRW50aXR5LTAiIGRhdGEtaWQ9ImVudGl0eS1Vc2VyRW50aXR5LTAiIGRhdGEtbm9kZT0idHJ1ZSIgZGF0YS1ldD0ibm9kZSIgZGF0YS1sb29rPSJuZW8iIHRyYW5zZm9ybT0idHJhbnNsYXRlKDgyNy44NTkzNzUsIDE0Ny4xMjUpIj48ZyBzdHlsZT0iIj48cGF0aCBkPSJNLTk1LjA4NTkzNzUgLTk5LjM3NSBMOTUuMDg1OTM3NSAtOTkuMzc1IEw5NS4wODU5Mzc1IDk5LjM3NSBMLTk1LjA4NTkzNzUgOTkuMzc1IiBzdHJva2U9Im5vbmUiIHN0cm9rZS13aWR0aD0iMCIgZmlsbD0iI2ZmZmZmZiIvPjxwYXRoIGQ9Ik0tOTUuMDg1OTM3NSAtOTkuMzc1IEMtMjAuMTg4Njk4MjA2OTUxMjMgLTk5LjM3NSwgNTQuNzA4NTQxMDg2MDk3NTQgLTk5LjM3NSwgOTUuMDg1OTM3NSAtOTkuMzc1IE0tOTUuMDg1OTM3NSAtOTkuMzc1IEMtNTIuNTg2NzQ3ODEyNzkyODIgLTk5LjM3NSwgLTEwLjA4NzU1ODEyNTU4NTY0NSAtOTkuMzc1LCA5NS4wODU5Mzc1IC05OS4zNzUgTTk1LjA4NTkzNzUgLTk5LjM3NSBDOTUuMDg1OTM3NSAtNTcuOTcxNzY1NDQzNjA2MjMsIDk1LjA4NTkzNzUgLTE2LjU2ODUzMDg4NzIxMjQ2LCA5NS4wODU5Mzc1IDk5LjM3NSBNOTUuMDg1OTM3NSAtOTkuMzc1IEM5NS4wODU5Mzc1IC0zMS45NjAxOTQyMTI0MjIxMSwgOTUuMDg1OTM3NSAzNS40NTQ2MTE1NzUxNTU3OCwgOTUuMDg1OTM3NSA5OS4zNzUgTTk1LjA4NTkzNzUgOTkuMzc1IEMyMy40MTg1OTcyNjQ5ODQ5OTYgOTkuMzc1LCAtNDguMjQ4NzQyOTcwMDMwMDEgOTkuMzc1LCAtOTUuMDg1OTM3NSA5OS4zNzUgTTk1LjA4NTkzNzUgOTkuMzc1IEMyMC41ODMxMTgxNjIxODA2ODIgOTkuMzc1LCAtNTMuOTE5NzAxMTc1NjM4NjM2IDk5LjM3NSwgLTk1LjA4NTkzNzUgOTkuMzc1IE0tOTUuMDg1OTM3NSA5OS4zNzUgQy05NS4wODU5Mzc1IDIxLjk2Nzc0NDMwNjM3MzQwNSwgLTk1LjA4NTkzNzUgLTU1LjQzOTUxMTM4NzI1MzE5LCAtOTUuMDg1OTM3NSAtOTkuMzc1IE0tOTUuMDg1OTM3NSA5OS4zNzUgQy05NS4wODU5Mzc1IDIzLjQxMDc5OTY1MzYzNzQ5NywgLTk1LjA4NTkzNzUgLTUyLjU1MzQwMDY5MjcyNTAwNiwgLTk1LjA4NTkzNzUgLTk5LjM3NSIgc3Ryb2tlPSIjMDAwMDAwIiBzdHJva2Utd2lkdGg9IjEuMyIgZmlsbD0ibm9uZSIvPjwvZz48ZyBzdHlsZT0iIiBjbGFzcz0icm93LXJlY3Qtb2RkIj48cGF0aCBkPSJNLTk1LjA4NTkzNzUgMTkuODc1IEMtNDEuNzk4NjQ5NDQ3NDUxMDcgMTkuODc1LCAxMS40ODg2Mzg2MDUwOTc4NjIgMTkuODc1LCA5NS4wODU5Mzc1IDE5Ljg3NSBNLTk1LjA4NTkzNzUgMTkuODc1IEMtMjkuODkwOTE3OTcwMzU4ODcgMTkuODc1LCAzNS4zMDQxMDE1NTkyODIyNiAxOS44NzUsIDk1LjA4NTkzNzUgMTkuODc1IE05NS4wODU5Mzc1IDE5Ljg3NSBDOTUuMDg1OTM3NSAzMi40MzcyMTAwNTk3MjM3MSwgOTUuMDg1OTM3NSA0NC45OTk0MjAxMTk0NDc0MiwgOTUuMDg1OTM3NSA1OS42MjUgTTk1LjA4NTkzNzUgMTkuODc1IEM5NS4wODU5Mzc1IDI5LjQ2OTU5MzQ5NzMyODE4NCwgOTUuMDg1OTM3NSAzOS4wNjQxODY5OTQ2NTYzNywgOTUuMDg1OTM3NSA1OS42MjUgTTk1LjA4NTkzNzUgNTkuNjI1IEMzOS44MTQ0NjQ2Mjc3Mjk1ODUgNTkuNjI1LCAtMTUuNDU3MDA4MjQ0NTQwODMgNTkuNjI1LCAtOTUuMDg1OTM3NSA1OS42MjUgTTk1LjA4NTkzNzUgNTkuNjI1IEM0My41Mjk2OTc4NTkxMjIzNCA1OS42MjUsIC04LjAyNjU0MTc4MTc1NTMyNyA1OS42MjUsIC05NS4wODU5Mzc1IDU5LjYyNSBNLTk1LjA4NTkzNzUgNTkuNjI1IEMtOTUuMDg1OTM3NSA1MC42OTk4MzI5NzY1NjI4NSwgLTk1LjA4NTkzNzUgNDEuNzc0NjY1OTUzMTI1NzA1LCAtOTUuMDg1OTM3NSAxOS44NzUgTS05NS4wODU5Mzc1IDU5LjYyNSBDLTk1LjA4NTkzNzUgNTAuMjA1NjM1NzA3MDI1MjY2LCAtOTUuMDg1OTM3NSA0MC43ODYyNzE0MTQwNTA1MywgLTk1LjA4NTkzNzUgMTkuODc1IiBzdHJva2U9IiMwMDAwMDAiIHN0cm9rZS13aWR0aD0iMS4zIiBmaWxsPSJub25lIi8+PC9nPjxnIHN0eWxlPSIiIGNsYXNzPSJyb3ctcmVjdC1ldmVuIj48cGF0aCBkPSJNLTk1LjA4NTkzNzUgNTkuNjI1IEMtMjMuNTcxNzA1NDAxMjk3NDM2IDU5LjYyNSwgNDcuOTQyNTI2Njk3NDA1MTMgNTkuNjI1LCA5NS4wODU5Mzc1IDU5LjYyNSBNLTk1LjA4NTkzNzUgNTkuNjI1IEMtNDMuNTIwODg2OTg5OTE4NTY2IDU5LjYyNSwgOC4wNDQxNjM1MjAxNjI4NjkgNTkuNjI1LCA5NS4wODU5Mzc1IDU5LjYyNSBNOTUuMDg1OTM3NSA1OS42MjUgQzk1LjA4NTkzNzUgNjkuMTE1NjYzMjU4MDIxNjcsIDk1LjA4NTkzNzUgNzguNjA2MzI2NTE2MDQzMzUsIDk1LjA4NTkzNzUgOTkuMzc1IE05NS4wODU5Mzc1IDU5LjYyNSBDOTUuMDg1OTM3NSA3MS4wNDEwMzMzOTM0ODg5NywgOTUuMDg1OTM3NSA4Mi40NTcwNjY3ODY5Nzc5NSwgOTUuMDg1OTM3NSA5OS4zNzUgTTk1LjA4NTkzNzUgOTkuMzc1IEMyNS4yMDg1NDY0MjQ4MzM0IDk5LjM3NSwgLTQ0LjY2ODg0NDY1MDMzMzIgOTkuMzc1LCAtOTUuMDg1OTM3NSA5OS4zNzUgTTk1LjA4NTkzNzUgOTkuMzc1IEMyMy42OTY1NDgzMjQwNTMwNTUgOTkuMzc1LCAtNDcuNjkyODQwODUxODkzODkgOTkuMzc1LCAtOTUuMDg1OTM3NSA5OS4zNzUgTS05NS4wODU5Mzc1IDk5LjM3NSBDLTk1LjA4NTkzNzUgODUuMTQ0NTM0NjUwNzUxODcsIC05NS4wODU5Mzc1IDcwLjkxNDA2OTMwMTUwMzc0LCAtOTUuMDg1OTM3NSA1OS42MjUgTS05NS4wODU5Mzc1IDk5LjM3NSBDLTk1LjA4NTkzNzUgODUuMzQxOTM3MTUxNzIxNDEsIC05NS4wODU5Mzc1IDcxLjMwODg3NDMwMzQ0MjgyLCAtOTUuMDg1OTM3NSA1OS42MjUiIHN0cm9rZT0iIzAwMDAwMCIgc3Ryb2tlLXdpZHRoPSIxLjMiIGZpbGw9Im5vbmUiLz48L2c+PGcgc3R5bGU9IiIgY2xhc3M9InJvdy1yZWN0LW9kZCI+PHBhdGggZD0iTS05NS4wODU5Mzc1IC01OS42MjUgQy0yNi45NDI2ODgxMTkzOTE5MDMgLTU5LjYyNSwgNDEuMjAwNTYxMjYxMjE2MTk0IC01OS42MjUsIDk1LjA4NTkzNzUgLTU5LjYyNSBNLTk1LjA4NTkzNzUgLTU5LjYyNSBDLTU2LjQwMTc2ODIyMDQwMjExIC01OS42MjUsIC0xNy43MTc1OTg5NDA4MDQyMjMgLTU5LjYyNSwgOTUuMDg1OTM3NSAtNTkuNjI1IE05NS4wODU5Mzc1IC01OS42MjUgQzk1LjA4NTkzNzUgLTQ4LjQwMzUzNDU5NTc0MTAzNiwgOTUuMDg1OTM3NSAtMzcuMTgyMDY5MTkxNDgyMDcsIDk1LjA4NTkzNzUgLTE5Ljg3NSBNOTUuMDg1OTM3NSAtNTkuNjI1IEM5NS4wODU5Mzc1IC00OS4xNjI5Njg4NTA5MDE5NywgOTUuMDg1OTM3NSAtMzguNzAwOTM3NzAxODAzOTQsIDk1LjA4NTkzNzUgLTE5Ljg3NSBNOTUuMDg1OTM3NSAtMTkuODc1IEM0MS4zNjA2NTEzMjI3ODk1MSAtMTkuODc1LCAtMTIuMzY0NjM0ODU0NDIwOTg0IC0xOS44NzUsIC05NS4wODU5Mzc1IC0xOS44NzUgTTk1LjA4NTkzNzUgLTE5Ljg3NSBDMzYuMDI4ODMxMzUwMTI5MTUgLTE5Ljg3NSwgLTIzLjAyODI3NDc5OTc0MTY5NSAtMTkuODc1LCAtOTUuMDg1OTM3NSAtMTkuODc1IE0tOTUuMDg1OTM3NSAtMTkuODc1IEMtOTUuMDg1OTM3NSAtMzEuMTk3NTc5NDk5OTQwMzMyLCAtOTUuMDg1OTM3NSAtNDIuNTIwMTU4OTk5ODgwNjY0LCAtOTUuMDg1OTM3NSAtNTkuNjI1IE0tOTUuMDg1OTM3NSAtMTkuODc1IEMtOTUuMDg1OTM3NSAtMzMuMTMzMDA3MTA0NDY1ODEsIC05NS4wODU5Mzc1IC00Ni4zOTEwMTQyMDg5MzE2MiwgLTk1LjA4NTkzNzUgLTU5LjYyNSIgc3Ryb2tlPSIjMDAwMDAwIiBzdHJva2Utd2lkdGg9IjEuMyIgZmlsbD0ibm9uZSIvPjwvZz48ZyBjbGFzcz0ibGFiZWwgbmFtZSIgdHJhbnNmb3JtPSJ0cmFuc2xhdGUoLTMyLjI4OTA2MjUsIC05MCkiIHN0eWxlPSIiPjxmb3JlaWduT2JqZWN0IHdpZHRoPSI2NC41NzgxMjUiIGhlaWdodD0iMjEiPjxkaXYgeG1sbnM9Imh0dHA6Ly93d3cudzMub3JnLzE5OTkveGh0bWwiIHN0eWxlPSJkaXNwbGF5OiB0YWJsZS1jZWxsOyB3aGl0ZS1zcGFjZTogbm9ybWFsOyBsaW5lLWhlaWdodDogMS41OyBtYXgtd2lkdGg6IDE4NXB4OyB0ZXh0LWFsaWduOiBzdGFydDsiPjxzcGFuIGNsYXNzPSJub2RlTGFiZWwiPjxwPlVzZXJFbnRpdHk8L3A+PC9zcGFuPjwvZGl2PjwvZm9yZWlnbk9iamVjdD48L2c+PGcgY2xhc3M9ImxhYmVsIGF0dHJpYnV0ZS10eXBlIiB0cmFuc2Zvcm09InRyYW5zbGF0ZSgtODIuNTg1OTM3NSwgLTUwLjI1KSIgc3R5bGU9IiI+PGZvcmVpZ25PYmplY3Qgd2lkdGg9IjE0Ljc4OTA2MjUiIGhlaWdodD0iMjEiPjxkaXYgeG1sbnM9Imh0dHA6Ly93d3cudzMub3JnLzE5OTkveGh0bWwiIHN0eWxlPSJkaXNwbGF5OiB0YWJsZS1jZWxsOyB3aGl0ZS1zcGFjZTogbm9ybWFsOyBsaW5lLWhlaWdodDogMS41OyBtYXgtd2lkdGg6IDEyM3B4OyB0ZXh0LWFsaWduOiBzdGFydDsiPjxzcGFuIGNsYXNzPSJub2RlTGFiZWwiPjxwPmludDwvcD48L3NwYW4+PC9kaXY+PC9mb3JlaWduT2JqZWN0PjwvZz48ZyBjbGFzcz0ibGFiZWwgYXR0cmlidXRlLW5hbWUiIHRyYW5zZm9ybT0idHJhbnNsYXRlKC0yMy4zNTE1NjI1LCAtNTAuMjUpIiBzdHlsZT0iIj48Zm9yZWlnbk9iamVjdCB3aWR0aD0iMzguOTE0MDYyNSIgaGVpZ2h0PSIyMSI+PGRpdiB4bWxucz0iaHR0cDovL3d3dy53My5vcmcvMTk5OS94aHRtbCIgc3R5bGU9ImRpc3BsYXk6IHRhYmxlLWNlbGw7IHdoaXRlLXNwYWNlOiBub3JtYWw7IGxpbmUtaGVpZ2h0OiAxLjU7IG1heC13aWR0aDogMTUycHg7IHRleHQtYWxpZ246IHN0YXJ0OyI+PHNwYW4gY2xhc3M9Im5vZGVMYWJlbCI+PHA+dXNlcklkPC9wPjwvc3Bhbj48L2Rpdj48L2ZvcmVpZ25PYmplY3Q+PC9nPjxnIGNsYXNzPSJsYWJlbCBhdHRyaWJ1dGUta2V5cyIgdHJhbnNmb3JtPSJ0cmFuc2xhdGUoNjMuOTA2MjUsIC01MC4yNSkiIHN0eWxlPSIiPjxmb3JlaWduT2JqZWN0IHdpZHRoPSIxOC42Nzk2ODc1IiBoZWlnaHQ9IjIxIj48ZGl2IHhtbG5zPSJodHRwOi8vd3d3LnczLm9yZy8xOTk5L3hodG1sIiBzdHlsZT0iZGlzcGxheTogdGFibGUtY2VsbDsgd2hpdGUtc3BhY2U6IG5vcm1hbDsgbGluZS1oZWlnaHQ6IDEuNTsgbWF4LXdpZHRoOiAxMTlweDsgdGV4dC1hbGlnbjogc3RhcnQ7Ij48c3BhbiBjbGFzcz0ibm9kZUxhYmVsIj48cD5QSzwvcD48L3NwYW4+PC9kaXY+PC9mb3JlaWduT2JqZWN0PjwvZz48ZyBjbGFzcz0ibGFiZWwgYXR0cmlidXRlLWNvbW1lbnQiIHRyYW5zZm9ybT0idHJhbnNsYXRlKDEwNy41ODU5Mzc1LCAtNTAuMjUpIiBzdHlsZT0iIj48Zm9yZWlnbk9iamVjdCB3aWR0aD0iMCIgaGVpZ2h0PSIwIj48ZGl2IHhtbG5zPSJodHRwOi8vd3d3LnczLm9yZy8xOTk5L3hodG1sIiBzdHlsZT0iZGlzcGxheTogdGFibGUtY2VsbDsgd2hpdGUtc3BhY2U6IG5vcm1hbDsgbGluZS1oZWlnaHQ6IDEuNTsgbWF4LXdpZHRoOiAxMDBweDsgdGV4dC1hbGlnbjogc3RhcnQ7Ij48c3BhbiBjbGFzcz0ibm9kZUxhYmVsIj48L3NwYW4+PC9kaXY+PC9mb3JlaWduT2JqZWN0PjwvZz48ZyBjbGFzcz0ibGFiZWwgYXR0cmlidXRlLXR5cGUiIHRyYW5zZm9ybT0idHJhbnNsYXRlKC04Mi41ODU5Mzc1LCAtMTAuNSkiIHN0eWxlPSIiPjxmb3JlaWduT2JqZWN0IHdpZHRoPSIzNC4yMzQzNzUiIGhlaWdodD0iMjEiPjxkaXYgeG1sbnM9Imh0dHA6Ly93d3cudzMub3JnLzE5OTkveGh0bWwiIHN0eWxlPSJkaXNwbGF5OiB0YWJsZS1jZWxsOyB3aGl0ZS1zcGFjZTogbm9ybWFsOyBsaW5lLWhlaWdodDogMS41OyBtYXgtd2lkdGg6IDE0OHB4OyB0ZXh0LWFsaWduOiBzdGFydDsiPjxzcGFuIGNsYXNzPSJub2RlTGFiZWwiPjxwPnN0cmluZzwvcD48L3NwYW4+PC9kaXY+PC9mb3JlaWduT2JqZWN0PjwvZz48ZyBjbGFzcz0ibGFiZWwgYXR0cmlidXRlLW5hbWUiIHRyYW5zZm9ybT0idHJhbnNsYXRlKC0yMy4zNTE1NjI1LCAtMTAuNSkiIHN0eWxlPSIiPjxmb3JlaWduT2JqZWN0IHdpZHRoPSI2Mi4yNTc4MTI1IiBoZWlnaHQ9IjIxIj48ZGl2IHhtbG5zPSJodHRwOi8vd3d3LnczLm9yZy8xOTk5L3hodG1sIiBzdHlsZT0iZGlzcGxheTogdGFibGUtY2VsbDsgd2hpdGUtc3BhY2U6IG5vcm1hbDsgbGluZS1oZWlnaHQ6IDEuNTsgbWF4LXdpZHRoOiAxNzhweDsgdGV4dC1hbGlnbjogc3RhcnQ7Ij48c3BhbiBjbGFzcz0ibm9kZUxhYmVsIj48cD51c2VybmFtZTwvcD48L3NwYW4+PC9kaXY+PC9mb3JlaWduT2JqZWN0PjwvZz48ZyBjbGFzcz0ibGFiZWwgYXR0cmlidXRlLWtleXMiIHRyYW5zZm9ybT0idHJhbnNsYXRlKDYzLjkwNjI1LCAtMTAuNSkiIHN0eWxlPSIiPjxmb3JlaWduT2JqZWN0IHdpZHRoPSIwIiBoZWlnaHQ9IjAiPjxkaXYgeG1sbnM9Imh0dHA6Ly93d3cudzMub3JnLzE5OTkveGh0bWwiIHN0eWxlPSJkaXNwbGF5OiB0YWJsZS1jZWxsOyB3aGl0ZS1zcGFjZTogbm9ybWFsOyBsaW5lLWhlaWdodDogMS41OyBtYXgtd2lkdGg6IDEwMHB4OyB0ZXh0LWFsaWduOiBzdGFydDsiPjxzcGFuIGNsYXNzPSJub2RlTGFiZWwiPjwvc3Bhbj48L2Rpdj48L2ZvcmVpZ25PYmplY3Q+PC9nPjxnIGNsYXNzPSJsYWJlbCBhdHRyaWJ1dGUtY29tbWVudCIgdHJhbnNmb3JtPSJ0cmFuc2xhdGUoMTA3LjU4NTkzNzUsIC0xMC41KSIgc3R5bGU9IiI+PGZvcmVpZ25PYmplY3Qgd2lkdGg9IjAiIGhlaWdodD0iMCI+PGRpdiB4bWxucz0iaHR0cDovL3d3dy53My5vcmcvMTk5OS94aHRtbCIgc3R5bGU9ImRpc3BsYXk6IHRhYmxlLWNlbGw7IHdoaXRlLXNwYWNlOiBub3JtYWw7IGxpbmUtaGVpZ2h0OiAxLjU7IG1heC13aWR0aDogMTAwcHg7IHRleHQtYWxpZ246IHN0YXJ0OyI+PHNwYW4gY2xhc3M9Im5vZGVMYWJlbCI+PC9zcGFuPjwvZGl2PjwvZm9yZWlnbk9iamVjdD48L2c+PGcgY2xhc3M9ImxhYmVsIGF0dHJpYnV0ZS10eXBlIiB0cmFuc2Zvcm09InRyYW5zbGF0ZSgtODIuNTg1OTM3NSwgMjkuMjUpIiBzdHlsZT0iIj48Zm9yZWlnbk9iamVjdCB3aWR0aD0iMzQuMjM0Mzc1IiBoZWlnaHQ9IjIxIj48ZGl2IHhtbG5zPSJodHRwOi8vd3d3LnczLm9yZy8xOTk5L3hodG1sIiBzdHlsZT0iZGlzcGxheTogdGFibGUtY2VsbDsgd2hpdGUtc3BhY2U6IG5vcm1hbDsgbGluZS1oZWlnaHQ6IDEuNTsgbWF4LXdpZHRoOiAxNDhweDsgdGV4dC1hbGlnbjogc3RhcnQ7Ij48c3BhbiBjbGFzcz0ibm9kZUxhYmVsIj48cD5zdHJpbmc8L3A+PC9zcGFuPjwvZGl2PjwvZm9yZWlnbk9iamVjdD48L2c+PGcgY2xhc3M9ImxhYmVsIGF0dHJpYnV0ZS1uYW1lIiB0cmFuc2Zvcm09InRyYW5zbGF0ZSgtMjMuMzUxNTYyNSwgMjkuMjUpIiBzdHlsZT0iIj48Zm9yZWlnbk9iamVjdCB3aWR0aD0iNTkuOTIxODc1IiBoZWlnaHQ9IjIxIj48ZGl2IHhtbG5zPSJodHRwOi8vd3d3LnczLm9yZy8xOTk5L3hodG1sIiBzdHlsZT0iZGlzcGxheTogdGFibGUtY2VsbDsgd2hpdGUtc3BhY2U6IG5vcm1hbDsgbGluZS1oZWlnaHQ6IDEuNTsgbWF4LXdpZHRoOiAxNzZweDsgdGV4dC1hbGlnbjogc3RhcnQ7Ij48c3BhbiBjbGFzcz0ibm9kZUxhYmVsIj48cD5wYXNzd29yZDwvcD48L3NwYW4+PC9kaXY+PC9mb3JlaWduT2JqZWN0PjwvZz48ZyBjbGFzcz0ibGFiZWwgYXR0cmlidXRlLWtleXMiIHRyYW5zZm9ybT0idHJhbnNsYXRlKDYzLjkwNjI1LCAyOS4yNSkiIHN0eWxlPSIiPjxmb3JlaWduT2JqZWN0IHdpZHRoPSIwIiBoZWlnaHQ9IjAiPjxkaXYgeG1sbnM9Imh0dHA6Ly93d3cudzMub3JnLzE5OTkveGh0bWwiIHN0eWxlPSJkaXNwbGF5OiB0YWJsZS1jZWxsOyB3aGl0ZS1zcGFjZTogbm9ybWFsOyBsaW5lLWhlaWdodDogMS41OyBtYXgtd2lkdGg6IDEwMHB4OyB0ZXh0LWFsaWduOiBzdGFydDsiPjxzcGFuIGNsYXNzPSJub2RlTGFiZWwiPjwvc3Bhbj48L2Rpdj48L2ZvcmVpZ25PYmplY3Q+PC9nPjxnIGNsYXNzPSJsYWJlbCBhdHRyaWJ1dGUtY29tbWVudCIgdHJhbnNmb3JtPSJ0cmFuc2xhdGUoMTA3LjU4NTkzNzUsIDI5LjI1KSIgc3R5bGU9IiI+PGZvcmVpZ25PYmplY3Qgd2lkdGg9IjAiIGhlaWdodD0iMCI+PGRpdiB4bWxucz0iaHR0cDovL3d3dy53My5vcmcvMTk5OS94aHRtbCIgc3R5bGU9ImRpc3BsYXk6IHRhYmxlLWNlbGw7IHdoaXRlLXNwYWNlOiBub3JtYWw7IGxpbmUtaGVpZ2h0OiAxLjU7IG1heC13aWR0aDogMTAwcHg7IHRleHQtYWxpZ246IHN0YXJ0OyI+PHNwYW4gY2xhc3M9Im5vZGVMYWJlbCI+PC9zcGFuPjwvZGl2PjwvZm9yZWlnbk9iamVjdD48L2c+PGcgY2xhc3M9ImxhYmVsIGF0dHJpYnV0ZS10eXBlIiB0cmFuc2Zvcm09InRyYW5zbGF0ZSgtODIuNTg1OTM3NSwgNjkpIiBzdHlsZT0iIj48Zm9yZWlnbk9iamVjdCB3aWR0aD0iMzQuMjM0Mzc1IiBoZWlnaHQ9IjIxIj48ZGl2IHhtbG5zPSJodHRwOi8vd3d3LnczLm9yZy8xOTk5L3hodG1sIiBzdHlsZT0iZGlzcGxheTogdGFibGUtY2VsbDsgd2hpdGUtc3BhY2U6IG5vcm1hbDsgbGluZS1oZWlnaHQ6IDEuNTsgbWF4LXdpZHRoOiAxNDhweDsgdGV4dC1hbGlnbjogc3RhcnQ7Ij48c3BhbiBjbGFzcz0ibm9kZUxhYmVsIj48cD5zdHJpbmc8L3A+PC9zcGFuPjwvZGl2PjwvZm9yZWlnbk9iamVjdD48L2c+PGcgY2xhc3M9ImxhYmVsIGF0dHJpYnV0ZS1uYW1lIiB0cmFuc2Zvcm09InRyYW5zbGF0ZSgtMjMuMzUxNTYyNSwgNjkpIiBzdHlsZT0iIj48Zm9yZWlnbk9iamVjdCB3aWR0aD0iMzMuNDYwOTM3NSIgaGVpZ2h0PSIyMSI+PGRpdiB4bWxucz0iaHR0cDovL3d3dy53My5vcmcvMTk5OS94aHRtbCIgc3R5bGU9ImRpc3BsYXk6IHRhYmxlLWNlbGw7IHdoaXRlLXNwYWNlOiBub3JtYWw7IGxpbmUtaGVpZ2h0OiAxLjU7IG1heC13aWR0aDogMTQ0cHg7IHRleHQtYWxpZ246IHN0YXJ0OyI+PHNwYW4gY2xhc3M9Im5vZGVMYWJlbCI+PHA+ZW1haWw8L3A+PC9zcGFuPjwvZGl2PjwvZm9yZWlnbk9iamVjdD48L2c+PGcgY2xhc3M9ImxhYmVsIGF0dHJpYnV0ZS1rZXlzIiB0cmFuc2Zvcm09InRyYW5zbGF0ZSg2My45MDYyNSwgNjkpIiBzdHlsZT0iIj48Zm9yZWlnbk9iamVjdCB3aWR0aD0iMCIgaGVpZ2h0PSIwIj48ZGl2IHhtbG5zPSJodHRwOi8vd3d3LnczLm9yZy8xOTk5L3hodG1sIiBzdHlsZT0iZGlzcGxheTogdGFibGUtY2VsbDsgd2hpdGUtc3BhY2U6IG5vcm1hbDsgbGluZS1oZWlnaHQ6IDEuNTsgbWF4LXdpZHRoOiAxMDBweDsgdGV4dC1hbGlnbjogc3RhcnQ7Ij48c3BhbiBjbGFzcz0ibm9kZUxhYmVsIj48L3NwYW4+PC9kaXY+PC9mb3JlaWduT2JqZWN0PjwvZz48ZyBjbGFzcz0ibGFiZWwgYXR0cmlidXRlLWNvbW1lbnQiIHRyYW5zZm9ybT0idHJhbnNsYXRlKDEwNy41ODU5Mzc1LCA2OSkiIHN0eWxlPSIiPjxmb3JlaWduT2JqZWN0IHdpZHRoPSIwIiBoZWlnaHQ9IjAiPjxkaXYgeG1sbnM9Imh0dHA6Ly93d3cudzMub3JnLzE5OTkveGh0bWwiIHN0eWxlPSJkaXNwbGF5OiB0YWJsZS1jZWxsOyB3aGl0ZS1zcGFjZTogbm9ybWFsOyBsaW5lLWhlaWdodDogMS41OyBtYXgtd2lkdGg6IDEwMHB4OyB0ZXh0LWFsaWduOiBzdGFydDsiPjxzcGFuIGNsYXNzPSJub2RlTGFiZWwiPjwvc3Bhbj48L2Rpdj48L2ZvcmVpZ25PYmplY3Q+PC9nPjxnIGNsYXNzPSJkaXZpZGVyIj48cGF0aCBkPSJNLTk1LjA4NTkzNzUgLTU5LjYyNSBDLTQ1LjExNTA0MTI0NTk0MTkgLTU5LjYyNSwgNC44NTU4NTUwMDgxMTYxOTQgLTU5LjYyNSwgOTUuMDg1OTM3NSAtNTkuNjI1IE0tOTUuMDg1OTM3NSAtNTkuNjI1IEMtNDQuNTcwNDI0MTY0Nzk2MjQgLTU5LjYyNSwgNS45NDUwODkxNzA0MDc1MTMgLTU5LjYyNSwgOTUuMDg1OTM3NSAtNTkuNjI1IiBzdHJva2U9IiMwMDAwMDAiIHN0cm9rZS13aWR0aD0iMS4zIiBmaWxsPSJub25lIi8+PC9nPjxnIGNsYXNzPSJkaXZpZGVyIj48cGF0aCBkPSJNLTM1Ljg1MTU2MjUgLTU5LjYyNSBDLTM1Ljg1MTU2MjUgLTUuNjg4MTIwNTkxMTQwMDIsIC0zNS44NTE1NjI1IDQ4LjI0ODc1ODgxNzcxOTk2LCAtMzUuODUxNTYyNSA5OS4zNzUgTS0zNS44NTE1NjI1IC01OS42MjUgQy0zNS44NTE1NjI1IC0yNC42OTk2MzcyNjk4NjUyNSwgLTM1Ljg1MTU2MjUgMTAuMjI1NzI1NDYwMjY5NTAxLCAtMzUuODUxNTYyNSA5OS4zNzUiIHN0cm9rZT0iIzAwMDAwMCIgc3Ryb2tlLXdpZHRoPSIxLjMiIGZpbGw9Im5vbmUiLz48L2c+PGcgY2xhc3M9ImRpdmlkZXIiPjxwYXRoIGQ9Ik01MS40MDYyNSAtNTkuNjI1IEM1MS40MDYyNSAtNS42NTU0Nzg2ODI2MDU0OTEsIDUxLjQwNjI1IDQ4LjMxNDA0MjYzNDc4OTAyLCA1MS40MDYyNSA5OS4zNzUgTTUxLjQwNjI1IC01OS42MjUgQzUxLjQwNjI1IC0xLjgyMTM3NDI0MTk4NDg1NTgsIDUxLjQwNjI1IDU1Ljk4MjI1MTUxNjAzMDI5LCA1MS40MDYyNSA5OS4zNzUiIHN0cm9rZT0iIzAwMDAwMCIgc3Ryb2tlLXdpZHRoPSIxLjMiIGZpbGw9Im5vbmUiLz48L2c+PGcgY2xhc3M9ImRpdmlkZXIiPjxwYXRoIGQ9Ik0tOTUuMDg1OTM3NSAtMTkuODc1IEMtNDMuODAwOTg0MDgwOTE5ODQgLTE5Ljg3NSwgNy40ODM5NjkzMzgxNjAzMjEgLTE5Ljg3NSwgOTUuMDg1OTM3NSAtMTkuODc1IE0tOTUuMDg1OTM3NSAtMTkuODc1IEMtMzkuNTE5NTIxNDc5MDgyODU0IC0xOS44NzUsIDE2LjA0Njg5NDU0MTgzNDI5IC0xOS44NzUsIDk1LjA4NTkzNzUgLTE5Ljg3NSIgc3Ryb2tlPSIjMDAwMDAwIiBzdHJva2Utd2lkdGg9IjEuMyIgZmlsbD0ibm9uZSIvPjwvZz48ZyBjbGFzcz0iZGl2aWRlciI+PHBhdGggZD0iTS05NS4wODU5Mzc1IDE5Ljg3NSBDLTI4LjA0MzI4NjU2OTk1NzYzIDE5Ljg3NSwgMzguOTk5MzY0MzYwMDg0NzQgMTkuODc1LCA5NS4wODU5Mzc1IDE5Ljg3NSBNLTk1LjA4NTkzNzUgMTkuODc1IEMtNDQuMTI5MzgxNjI4MzYwODI1IDE5Ljg3NSwgNi44MjcxNzQyNDMyNzgzNSAxOS44NzUsIDk1LjA4NTkzNzUgMTkuODc1IiBzdHJva2U9IiMwMDAwMDAiIHN0cm9rZS13aWR0aD0iMS4zIiBmaWxsPSJub25lIi8+PC9nPjxnIGNsYXNzPSJkaXZpZGVyIj48cGF0aCBkPSJNLTk1LjA4NTkzNzUgNTkuNjI1IEMtNTMuNzI5ODA5ODI2NzIxOSA1OS42MjUsIC0xMi4zNzM2ODIxNTM0NDM3OTUgNTkuNjI1LCA5NS4wODU5Mzc1IDU5LjYyNSBNLTk1LjA4NTkzNzUgNTkuNjI1IEMtMzEuNTMwNDc1OTUxNzY2NDgzIDU5LjYyNSwgMzIuMDI0OTg1NTk2NDY3MDMgNTkuNjI1LCA5NS4wODU5Mzc1IDU5LjYyNSIgc3Ryb2tlPSIjMDAwMDAwIiBzdHJva2Utd2lkdGg9IjEuMyIgZmlsbD0ibm9uZSIvPjwvZz48ZyBjbGFzcz0iZGl2aWRlciI+PHBhdGggZD0iTS05NS4wODU5Mzc1IC01OS42MjUgQy01MC43MDQzODg4OTA3MDA3OCAtNTkuNjI1LCAtNi4zMjI4NDAyODE0MDE1NTQgLTU5LjYyNSwgOTUuMDg1OTM3NSAtNTkuNjI1IE0tOTUuMDg1OTM3NSAtNTkuNjI1IEMtNDYuNTAwMTA5NjQzNjQ3MzEgLTU5LjYyNSwgMi4wODU3MTgyMTI3MDUzNzMzIC01OS42MjUsIDk1LjA4NTkzNzUgLTU5LjYyNSIgc3Ryb2tlPSIjMDAwMDAwIiBzdHJva2Utd2lkdGg9IjEuMyIgZmlsbD0ibm9uZSIvPjwvZz48L2c+PGcgY2xhc3M9Im5vZGUgZGVmYXVsdCIgaWQ9ImVudGl0eS1XaXNoTGlzdC0xIiBkYXRhLWlkPSJlbnRpdHktV2lzaExpc3QtMSIgZGF0YS1ub2RlPSJ0cnVlIiBkYXRhLWV0PSJub2RlIiBkYXRhLWxvb2s9Im5lbyIgdHJhbnNmb3JtPSJ0cmFuc2xhdGUoNDk2LjIxODc1LCAyNDIuMDYyNSkiPjxnIHN0eWxlPSIiPjxwYXRoIGQ9Ik0tMTIzLjg2NzE4NzUgLTk5LjM3NSBMMTIzLjg2NzE4NzUgLTk5LjM3NSBMMTIzLjg2NzE4NzUgOTkuMzc1IEwtMTIzLjg2NzE4NzUgOTkuMzc1IiBzdHJva2U9Im5vbmUiIHN0cm9rZS13aWR0aD0iMCIgZmlsbD0iI2ZmZmZmZiIvPjxwYXRoIGQ9Ik0tMTIzLjg2NzE4NzUgLTk5LjM3NSBDLTUyLjgzODM0NjA0MjI3MjA4IC05OS4zNzUsIDE4LjE5MDQ5NTQxNTQ1NTg0MiAtOTkuMzc1LCAxMjMuODY3MTg3NSAtOTkuMzc1IE0tMTIzLjg2NzE4NzUgLTk5LjM3NSBDLTQ2LjUyNDgxNzg0NDcwMjMyNiAtOTkuMzc1LCAzMC44MTc1NTE4MTA1OTUzNDcgLTk5LjM3NSwgMTIzLjg2NzE4NzUgLTk5LjM3NSBNMTIzLjg2NzE4NzUgLTk5LjM3NSBDMTIzLjg2NzE4NzUgLTQyLjA3NzA2OTQ0NjM2MDgyNCwgMTIzLjg2NzE4NzUgMTUuMjIwODYxMTA3Mjc4MzUzLCAxMjMuODY3MTg3NSA5OS4zNzUgTTEyMy44NjcxODc1IC05OS4zNzUgQzEyMy44NjcxODc1IC00MS42MTM5NTQ4NTE4MzM0MywgMTIzLjg2NzE4NzUgMTYuMTQ3MDkwMjk2MzMzMTQ3LCAxMjMuODY3MTg3NSA5OS4zNzUgTTEyMy44NjcxODc1IDk5LjM3NSBDNjAuMDgzNTMzMTk1NTA0NzY0IDk5LjM3NSwgLTMuNzAwMTIxMTA4OTkwNDczIDk5LjM3NSwgLTEyMy44NjcxODc1IDk5LjM3NSBNMTIzLjg2NzE4NzUgOTkuMzc1IEM2Ny41ODU1NTgxMTgzMzc1NyA5OS4zNzUsIDExLjMwMzkyODczNjY3NTE0NyA5OS4zNzUsIC0xMjMuODY3MTg3NSA5OS4zNzUgTS0xMjMuODY3MTg3NSA5OS4zNzUgQy0xMjMuODY3MTg3NSA1MS4zMDMwOTc2NjM0NDg0MDUsIC0xMjMuODY3MTg3NSAzLjIzMTE5NTMyNjg5NjgwOTcsIC0xMjMuODY3MTg3NSAtOTkuMzc1IE0tMTIzLjg2NzE4NzUgOTkuMzc1IEMtMTIzLjg2NzE4NzUgMjguMTk3NjU4MjA4OTk3NDQsIC0xMjMuODY3MTg3NSAtNDIuOTc5NjgzNTgyMDA1MTIsIC0xMjMuODY3MTg3NSAtOTkuMzc1IiBzdHJva2U9IiMwMDAwMDAiIHN0cm9rZS13aWR0aD0iMS4zIiBmaWxsPSJub25lIi8+PC9nPjxnIHN0eWxlPSIiIGNsYXNzPSJyb3ctcmVjdC1vZGQiPjxwYXRoIGQ9Ik0tMTIzLjg2NzE4NzUgMTkuODc1IEMtNDAuOTYwMTQ2ODk2NTkxMzggMTkuODc1LCA0MS45NDY4OTM3MDY4MTcyMzUgMTkuODc1LCAxMjMuODY3MTg3NSAxOS44NzUgTS0xMjMuODY3MTg3NSAxOS44NzUgQy0zMi45Njc2NDI4NTcxOTQwNjUgMTkuODc1LCA1Ny45MzE5MDE3ODU2MTE4NyAxOS44NzUsIDEyMy44NjcxODc1IDE5Ljg3NSBNMTIzLjg2NzE4NzUgMTkuODc1IEMxMjMuODY3MTg3NSAzNS4zNjYzNTQ2MjgxMDAwNywgMTIzLjg2NzE4NzUgNTAuODU3NzA5MjU2MjAwMTQsIDEyMy44NjcxODc1IDU5LjYyNSBNMTIzLjg2NzE4NzUgMTkuODc1IEMxMjMuODY3MTg3NSAzMi44NzE4NzY0Mjg3Nzc1OCwgMTIzLjg2NzE4NzUgNDUuODY4NzUyODU3NTU1MTY1LCAxMjMuODY3MTg3NSA1OS42MjUgTTEyMy44NjcxODc1IDU5LjYyNSBDNDEuOTcwMTU4OTAyMjE1NDkgNTkuNjI1LCAtMzkuOTI2ODY5Njk1NTY5MDI1IDU5LjYyNSwgLTEyMy44NjcxODc1IDU5LjYyNSBNMTIzLjg2NzE4NzUgNTkuNjI1IEM2Ny44ODA1MjU3Mzg0NTIyOSA1OS42MjUsIDExLjg5Mzg2Mzk3NjkwNDU3IDU5LjYyNSwgLTEyMy44NjcxODc1IDU5LjYyNSBNLTEyMy44NjcxODc1IDU5LjYyNSBDLTEyMy44NjcxODc1IDQ2LjczODU5NDcyNDk5MTQyLCAtMTIzLjg2NzE4NzUgMzMuODUyMTg5NDQ5OTgyODQ1LCAtMTIzLjg2NzE4NzUgMTkuODc1IE0tMTIzLjg2NzE4NzUgNTkuNjI1IEMtMTIzLjg2NzE4NzUgNDguMTc4NjQ2MTAyNzQ0ODE0LCAtMTIzLjg2NzE4NzUgMzYuNzMyMjkyMjA1NDg5NjMsIC0xMjMuODY3MTg3NSAxOS44NzUiIHN0cm9rZT0iIzAwMDAwMCIgc3Ryb2tlLXdpZHRoPSIxLjMiIGZpbGw9Im5vbmUiLz48L2c+PGcgc3R5bGU9IiIgY2xhc3M9InJvdy1yZWN0LWV2ZW4iPjxwYXRoIGQ9Ik0tMTIzLjg2NzE4NzUgNTkuNjI1IEMtNjYuODAzNDM3NTcwNjg4OTYgNTkuNjI1LCAtOS43Mzk2ODc2NDEzNzc5MTMgNTkuNjI1LCAxMjMuODY3MTg3NSA1OS42MjUgTS0xMjMuODY3MTg3NSA1OS42MjUgQy03MC45MzE0NzU1NjA5ODk2MyA1OS42MjUsIC0xNy45OTU3NjM2MjE5NzkyNSA1OS42MjUsIDEyMy44NjcxODc1IDU5LjYyNSBNMTIzLjg2NzE4NzUgNTkuNjI1IEMxMjMuODY3MTg3NSA3NC4yMTg3OTM4NDMwMTUyNiwgMTIzLjg2NzE4NzUgODguODEyNTg3Njg2MDMwNTMsIDEyMy44NjcxODc1IDk5LjM3NSBNMTIzLjg2NzE4NzUgNTkuNjI1IEMxMjMuODY3MTg3NSA3My4yNzc1NTM4NjUyMTQ4OCwgMTIzLjg2NzE4NzUgODYuOTMwMTA3NzMwNDI5NzUsIDEyMy44NjcxODc1IDk5LjM3NSBNMTIzLjg2NzE4NzUgOTkuMzc1IEM2MC4wNDA2MzEzNjE4NDg3NyA5OS4zNzUsIC0zLjc4NTkyNDc3NjMwMjQ2NTUgOTkuMzc1LCAtMTIzLjg2NzE4NzUgOTkuMzc1IE0xMjMuODY3MTg3NSA5OS4zNzUgQzM5LjY3MDU0MDg1OTA5NDQxNiA5OS4zNzUsIC00NC41MjYxMDU3ODE4MTExNyA5OS4zNzUsIC0xMjMuODY3MTg3NSA5OS4zNzUgTS0xMjMuODY3MTg3NSA5OS4zNzUgQy0xMjMuODY3MTg3NSA4OC43OTEwNDc3MDQxOTA5MiwgLTEyMy44NjcxODc1IDc4LjIwNzA5NTQwODM4MTg1LCAtMTIzLjg2NzE4NzUgNTkuNjI1IE0tMTIzLjg2NzE4NzUgOTkuMzc1IEMtMTIzLjg2NzE4NzUgODUuNzI5OTM4MzQxNjU0OTQsIC0xMjMuODY3MTg3NSA3Mi4wODQ4NzY2ODMzMDk4OSwgLTEyMy44NjcxODc1IDU5LjYyNSIgc3Ryb2tlPSIjMDAwMDAwIiBzdHJva2Utd2lkdGg9IjEuMyIgZmlsbD0ibm9uZSIvPjwvZz48ZyBzdHlsZT0iIiBjbGFzcz0icm93LXJlY3Qtb2RkIj48cGF0aCBkPSJNLTEyMy44NjcxODc1IC01OS42MjUgQy0zNC4yMjc1NDA4MTI1ODU0IC01OS42MjUsIDU1LjQxMjEwNTg3NDgyOTE5NCAtNTkuNjI1LCAxMjMuODY3MTg3NSAtNTkuNjI1IE0tMTIzLjg2NzE4NzUgLTU5LjYyNSBDLTQ5LjI4MzcxODI5MjA4NTkzNiAtNTkuNjI1LCAyNS4yOTk3NTA5MTU4MjgxMjggLTU5LjYyNSwgMTIzLjg2NzE4NzUgLTU5LjYyNSBNMTIzLjg2NzE4NzUgLTU5LjYyNSBDMTIzLjg2NzE4NzUgLTQ1LjkwNzIyMjQ4NzMzNjE1LCAxMjMuODY3MTg3NSAtMzIuMTg5NDQ0OTc0NjcyMywgMTIzLjg2NzE4NzUgLTE5Ljg3NSBNMTIzLjg2NzE4NzUgLTU5LjYyNSBDMTIzLjg2NzE4NzUgLTQ5LjQwNzM0MDgxNDgyMzU3LCAxMjMuODY3MTg3NSAtMzkuMTg5NjgxNjI5NjQ3MTUsIDEyMy44NjcxODc1IC0xOS44NzUgTTEyMy44NjcxODc1IC0xOS44NzUgQzQ2LjE5NTE2MDE4MjgzNDg0IC0xOS44NzUsIC0zMS40NzY4NjcxMzQzMzAzMiAtMTkuODc1LCAtMTIzLjg2NzE4NzUgLTE5Ljg3NSBNMTIzLjg2NzE4NzUgLTE5Ljg3NSBDNDMuMTkyMDk3Nzg2OTY3NDEgLTE5Ljg3NSwgLTM3LjQ4Mjk5MTkyNjA2NTE4IC0xOS44NzUsIC0xMjMuODY3MTg3NSAtMTkuODc1IE0tMTIzLjg2NzE4NzUgLTE5Ljg3NSBDLTEyMy44NjcxODc1IC0zMC43OTY5MDIwNTM3MDE4NjQsIC0xMjMuODY3MTg3NSAtNDEuNzE4ODA0MTA3NDAzNzMsIC0xMjMuODY3MTg3NSAtNTkuNjI1IE0tMTIzLjg2NzE4NzUgLTE5Ljg3NSBDLTEyMy44NjcxODc1IC0zMC4xOTYxODMwODA0NTgzNDcsIC0xMjMuODY3MTg3NSAtNDAuNTE3MzY2MTYwOTE2Njk0LCAtMTIzLjg2NzE4NzUgLTU5LjYyNSIgc3Ryb2tlPSIjMDAwMDAwIiBzdHJva2Utd2lkdGg9IjEuMyIgZmlsbD0ibm9uZSIvPjwvZz48ZyBjbGFzcz0ibGFiZWwgbmFtZSIgdHJhbnNmb3JtPSJ0cmFuc2xhdGUoLTI2LjQ0OTIxODc1LCAtOTApIiBzdHlsZT0iIj48Zm9yZWlnbk9iamVjdCB3aWR0aD0iNTIuODk4NDM3NSIgaGVpZ2h0PSIyMSI+PGRpdiB4bWxucz0iaHR0cDovL3d3dy53My5vcmcvMTk5OS94aHRtbCIgc3R5bGU9ImRpc3BsYXk6IHRhYmxlLWNlbGw7IHdoaXRlLXNwYWNlOiBub3JtYWw7IGxpbmUtaGVpZ2h0OiAxLjU7IG1heC13aWR0aDogMTcwcHg7IHRleHQtYWxpZ246IHN0YXJ0OyI+PHNwYW4gY2xhc3M9Im5vZGVMYWJlbCI+PHA+V2lzaExpc3Q8L3A+PC9zcGFuPjwvZGl2PjwvZm9yZWlnbk9iamVjdD48L2c+PGcgY2xhc3M9ImxhYmVsIGF0dHJpYnV0ZS10eXBlIiB0cmFuc2Zvcm09InRyYW5zbGF0ZSgtMTExLjM2NzE4NzUsIC01MC4yNSkiIHN0eWxlPSIiPjxmb3JlaWduT2JqZWN0IHdpZHRoPSIxNC43ODkwNjI1IiBoZWlnaHQ9IjIxIj48ZGl2IHhtbG5zPSJodHRwOi8vd3d3LnczLm9yZy8xOTk5L3hodG1sIiBzdHlsZT0iZGlzcGxheTogdGFibGUtY2VsbDsgd2hpdGUtc3BhY2U6IG5vcm1hbDsgbGluZS1oZWlnaHQ6IDEuNTsgbWF4LXdpZHRoOiAxMjNweDsgdGV4dC1hbGlnbjogc3RhcnQ7Ij48c3BhbiBjbGFzcz0ibm9kZUxhYmVsIj48cD5pbnQ8L3A+PC9zcGFuPjwvZGl2PjwvZm9yZWlnbk9iamVjdD48L2c+PGcgY2xhc3M9ImxhYmVsIGF0dHJpYnV0ZS1uYW1lIiB0cmFuc2Zvcm09InRyYW5zbGF0ZSgtNTIuMTMyODEyNSwgLTUwLjI1KSIgc3R5bGU9IiI+PGZvcmVpZ25PYmplY3Qgd2lkdGg9IjYxLjQ2ODc1IiBoZWlnaHQ9IjIxIj48ZGl2IHhtbG5zPSJodHRwOi8vd3d3LnczLm9yZy8xOTk5L3hodG1sIiBzdHlsZT0iZGlzcGxheTogdGFibGUtY2VsbDsgd2hpdGUtc3BhY2U6IG5vcm1hbDsgbGluZS1oZWlnaHQ6IDEuNTsgbWF4LXdpZHRoOiAxODVweDsgdGV4dC1hbGlnbjogc3RhcnQ7Ij48c3BhbiBjbGFzcz0ibm9kZUxhYmVsIj48cD53aXNoTGlzdElkPC9wPjwvc3Bhbj48L2Rpdj48L2ZvcmVpZ25PYmplY3Q+PC9nPjxnIGNsYXNzPSJsYWJlbCBhdHRyaWJ1dGUta2V5cyIgdHJhbnNmb3JtPSJ0cmFuc2xhdGUoOTIuNjg3NSwgLTUwLjI1KSIgc3R5bGU9IiI+PGZvcmVpZ25PYmplY3Qgd2lkdGg9IjE4LjY3OTY4NzUiIGhlaWdodD0iMjEiPjxkaXYgeG1sbnM9Imh0dHA6Ly93d3cudzMub3JnLzE5OTkveGh0bWwiIHN0eWxlPSJkaXNwbGF5OiB0YWJsZS1jZWxsOyB3aGl0ZS1zcGFjZTogbm9ybWFsOyBsaW5lLWhlaWdodDogMS41OyBtYXgtd2lkdGg6IDExOXB4OyB0ZXh0LWFsaWduOiBzdGFydDsiPjxzcGFuIGNsYXNzPSJub2RlTGFiZWwiPjxwPlBLPC9wPjwvc3Bhbj48L2Rpdj48L2ZvcmVpZ25PYmplY3Q+PC9nPjxnIGNsYXNzPSJsYWJlbCBhdHRyaWJ1dGUtY29tbWVudCIgdHJhbnNmb3JtPSJ0cmFuc2xhdGUoMTM2LjM2NzE4NzUsIC01MC4yNSkiIHN0eWxlPSIiPjxmb3JlaWduT2JqZWN0IHdpZHRoPSIwIiBoZWlnaHQ9IjAiPjxkaXYgeG1sbnM9Imh0dHA6Ly93d3cudzMub3JnLzE5OTkveGh0bWwiIHN0eWxlPSJkaXNwbGF5OiB0YWJsZS1jZWxsOyB3aGl0ZS1zcGFjZTogbm9ybWFsOyBsaW5lLWhlaWdodDogMS41OyBtYXgtd2lkdGg6IDEwMHB4OyB0ZXh0LWFsaWduOiBzdGFydDsiPjxzcGFuIGNsYXNzPSJub2RlTGFiZWwiPjwvc3Bhbj48L2Rpdj48L2ZvcmVpZ25PYmplY3Q+PC9nPjxnIGNsYXNzPSJsYWJlbCBhdHRyaWJ1dGUtdHlwZSIgdHJhbnNmb3JtPSJ0cmFuc2xhdGUoLTExMS4zNjcxODc1LCAtMTAuNSkiIHN0eWxlPSIiPjxmb3JlaWduT2JqZWN0IHdpZHRoPSIzNC4yMzQzNzUiIGhlaWdodD0iMjEiPjxkaXYgeG1sbnM9Imh0dHA6Ly93d3cudzMub3JnLzE5OTkveGh0bWwiIHN0eWxlPSJkaXNwbGF5OiB0YWJsZS1jZWxsOyB3aGl0ZS1zcGFjZTogbm9ybWFsOyBsaW5lLWhlaWdodDogMS41OyBtYXgtd2lkdGg6IDE0OHB4OyB0ZXh0LWFsaWduOiBzdGFydDsiPjxzcGFuIGNsYXNzPSJub2RlTGFiZWwiPjxwPnN0cmluZzwvcD48L3NwYW4+PC9kaXY+PC9mb3JlaWduT2JqZWN0PjwvZz48ZyBjbGFzcz0ibGFiZWwgYXR0cmlidXRlLW5hbWUiIHRyYW5zZm9ybT0idHJhbnNsYXRlKC01Mi4xMzI4MTI1LCAtMTAuNSkiIHN0eWxlPSIiPjxmb3JlaWduT2JqZWN0IHdpZHRoPSI4Ny4xNDA2MjUiIGhlaWdodD0iMjEiPjxkaXYgeG1sbnM9Imh0dHA6Ly93d3cudzMub3JnLzE5OTkveGh0bWwiIHN0eWxlPSJkaXNwbGF5OiB0YWJsZS1jZWxsOyB3aGl0ZS1zcGFjZTogbm9ybWFsOyBsaW5lLWhlaWdodDogMS41OyBtYXgtd2lkdGg6IDIxMXB4OyB0ZXh0LWFsaWduOiBzdGFydDsiPjxzcGFuIGNsYXNzPSJub2RlTGFiZWwiPjxwPndpc2hMaXN0TmFtZTwvcD48L3NwYW4+PC9kaXY+PC9mb3JlaWduT2JqZWN0PjwvZz48ZyBjbGFzcz0ibGFiZWwgYXR0cmlidXRlLWtleXMiIHRyYW5zZm9ybT0idHJhbnNsYXRlKDkyLjY4NzUsIC0xMC41KSIgc3R5bGU9IiI+PGZvcmVpZ25PYmplY3Qgd2lkdGg9IjAiIGhlaWdodD0iMCI+PGRpdiB4bWxucz0iaHR0cDovL3d3dy53My5vcmcvMTk5OS94aHRtbCIgc3R5bGU9ImRpc3BsYXk6IHRhYmxlLWNlbGw7IHdoaXRlLXNwYWNlOiBub3JtYWw7IGxpbmUtaGVpZ2h0OiAxLjU7IG1heC13aWR0aDogMTAwcHg7IHRleHQtYWxpZ246IHN0YXJ0OyI+PHNwYW4gY2xhc3M9Im5vZGVMYWJlbCI+PC9zcGFuPjwvZGl2PjwvZm9yZWlnbk9iamVjdD48L2c+PGcgY2xhc3M9ImxhYmVsIGF0dHJpYnV0ZS1jb21tZW50IiB0cmFuc2Zvcm09InRyYW5zbGF0ZSgxMzYuMzY3MTg3NSwgLTEwLjUpIiBzdHlsZT0iIj48Zm9yZWlnbk9iamVjdCB3aWR0aD0iMCIgaGVpZ2h0PSIwIj48ZGl2IHhtbG5zPSJodHRwOi8vd3d3LnczLm9yZy8xOTk5L3hodG1sIiBzdHlsZT0iZGlzcGxheTogdGFibGUtY2VsbDsgd2hpdGUtc3BhY2U6IG5vcm1hbDsgbGluZS1oZWlnaHQ6IDEuNTsgbWF4LXdpZHRoOiAxMDBweDsgdGV4dC1hbGlnbjogc3RhcnQ7Ij48c3BhbiBjbGFzcz0ibm9kZUxhYmVsIj48L3NwYW4+PC9kaXY+PC9mb3JlaWduT2JqZWN0PjwvZz48ZyBjbGFzcz0ibGFiZWwgYXR0cmlidXRlLXR5cGUiIHRyYW5zZm9ybT0idHJhbnNsYXRlKC0xMTEuMzY3MTg3NSwgMjkuMjUpIiBzdHlsZT0iIj48Zm9yZWlnbk9iamVjdCB3aWR0aD0iMzQuMjM0Mzc1IiBoZWlnaHQ9IjIxIj48ZGl2IHhtbG5zPSJodHRwOi8vd3d3LnczLm9yZy8xOTk5L3hodG1sIiBzdHlsZT0iZGlzcGxheTogdGFibGUtY2VsbDsgd2hpdGUtc3BhY2U6IG5vcm1hbDsgbGluZS1oZWlnaHQ6IDEuNTsgbWF4LXdpZHRoOiAxNDhweDsgdGV4dC1hbGlnbjogc3RhcnQ7Ij48c3BhbiBjbGFzcz0ibm9kZUxhYmVsIj48cD5zdHJpbmc8L3A+PC9zcGFuPjwvZGl2PjwvZm9yZWlnbk9iamVjdD48L2c+PGcgY2xhc3M9ImxhYmVsIGF0dHJpYnV0ZS1uYW1lIiB0cmFuc2Zvcm09InRyYW5zbGF0ZSgtNTIuMTMyODEyNSwgMjkuMjUpIiBzdHlsZT0iIj48Zm9yZWlnbk9iamVjdCB3aWR0aD0iMTE5LjgyMDMxMjUiIGhlaWdodD0iMjEiPjxkaXYgeG1sbnM9Imh0dHA6Ly93d3cudzMub3JnLzE5OTkveGh0bWwiIHN0eWxlPSJkaXNwbGF5OiB0YWJsZS1jZWxsOyB3aGl0ZS1zcGFjZTogbm9ybWFsOyBsaW5lLWhlaWdodDogMS41OyBtYXgtd2lkdGg6IDI1OXB4OyB0ZXh0LWFsaWduOiBzdGFydDsiPjxzcGFuIGNsYXNzPSJub2RlTGFiZWwiPjxwPndpc2hMaXN0RGVzY3JpcHRpb248L3A+PC9zcGFuPjwvZGl2PjwvZm9yZWlnbk9iamVjdD48L2c+PGcgY2xhc3M9ImxhYmVsIGF0dHJpYnV0ZS1rZXlzIiB0cmFuc2Zvcm09InRyYW5zbGF0ZSg5Mi42ODc1LCAyOS4yNSkiIHN0eWxlPSIiPjxmb3JlaWduT2JqZWN0IHdpZHRoPSIwIiBoZWlnaHQ9IjAiPjxkaXYgeG1sbnM9Imh0dHA6Ly93d3cudzMub3JnLzE5OTkveGh0bWwiIHN0eWxlPSJkaXNwbGF5OiB0YWJsZS1jZWxsOyB3aGl0ZS1zcGFjZTogbm9ybWFsOyBsaW5lLWhlaWdodDogMS41OyBtYXgtd2lkdGg6IDEwMHB4OyB0ZXh0LWFsaWduOiBzdGFydDsiPjxzcGFuIGNsYXNzPSJub2RlTGFiZWwiPjwvc3Bhbj48L2Rpdj48L2ZvcmVpZ25PYmplY3Q+PC9nPjxnIGNsYXNzPSJsYWJlbCBhdHRyaWJ1dGUtY29tbWVudCIgdHJhbnNmb3JtPSJ0cmFuc2xhdGUoMTM2LjM2NzE4NzUsIDI5LjI1KSIgc3R5bGU9IiI+PGZvcmVpZ25PYmplY3Qgd2lkdGg9IjAiIGhlaWdodD0iMCI+PGRpdiB4bWxucz0iaHR0cDovL3d3dy53My5vcmcvMTk5OS94aHRtbCIgc3R5bGU9ImRpc3BsYXk6IHRhYmxlLWNlbGw7IHdoaXRlLXNwYWNlOiBub3JtYWw7IGxpbmUtaGVpZ2h0OiAxLjU7IG1heC13aWR0aDogMTAwcHg7IHRleHQtYWxpZ246IHN0YXJ0OyI+PHNwYW4gY2xhc3M9Im5vZGVMYWJlbCI+PC9zcGFuPjwvZGl2PjwvZm9yZWlnbk9iamVjdD48L2c+PGcgY2xhc3M9ImxhYmVsIGF0dHJpYnV0ZS10eXBlIiB0cmFuc2Zvcm09InRyYW5zbGF0ZSgtMTExLjM2NzE4NzUsIDY5KSIgc3R5bGU9IiI+PGZvcmVpZ25PYmplY3Qgd2lkdGg9IjE0Ljc4OTA2MjUiIGhlaWdodD0iMjEiPjxkaXYgeG1sbnM9Imh0dHA6Ly93d3cudzMub3JnLzE5OTkveGh0bWwiIHN0eWxlPSJkaXNwbGF5OiB0YWJsZS1jZWxsOyB3aGl0ZS1zcGFjZTogbm9ybWFsOyBsaW5lLWhlaWdodDogMS41OyBtYXgtd2lkdGg6IDEyM3B4OyB0ZXh0LWFsaWduOiBzdGFydDsiPjxzcGFuIGNsYXNzPSJub2RlTGFiZWwiPjxwPmludDwvcD48L3NwYW4+PC9kaXY+PC9mb3JlaWduT2JqZWN0PjwvZz48ZyBjbGFzcz0ibGFiZWwgYXR0cmlidXRlLW5hbWUiIHRyYW5zZm9ybT0idHJhbnNsYXRlKC01Mi4xMzI4MTI1LCA2OSkiIHN0eWxlPSIiPjxmb3JlaWduT2JqZWN0IHdpZHRoPSIzOC45MTQwNjI1IiBoZWlnaHQ9IjIxIj48ZGl2IHhtbG5zPSJodHRwOi8vd3d3LnczLm9yZy8xOTk5L3hodG1sIiBzdHlsZT0iZGlzcGxheTogdGFibGUtY2VsbDsgd2hpdGUtc3BhY2U6IG5vcm1hbDsgbGluZS1oZWlnaHQ6IDEuNTsgbWF4LXdpZHRoOiAxNTJweDsgdGV4dC1hbGlnbjogc3RhcnQ7Ij48c3BhbiBjbGFzcz0ibm9kZUxhYmVsIj48cD51c2VySWQ8L3A+PC9zcGFuPjwvZGl2PjwvZm9yZWlnbk9iamVjdD48L2c+PGcgY2xhc3M9ImxhYmVsIGF0dHJpYnV0ZS1rZXlzIiB0cmFuc2Zvcm09InRyYW5zbGF0ZSg5Mi42ODc1LCA2OSkiIHN0eWxlPSIiPjxmb3JlaWduT2JqZWN0IHdpZHRoPSIxNy44OTA2MjUiIGhlaWdodD0iMjEiPjxkaXYgeG1sbnM9Imh0dHA6Ly93d3cudzMub3JnLzE5OTkveGh0bWwiIHN0eWxlPSJkaXNwbGF5OiB0YWJsZS1jZWxsOyB3aGl0ZS1zcGFjZTogbm9ybWFsOyBsaW5lLWhlaWdodDogMS41OyBtYXgtd2lkdGg6IDExOHB4OyB0ZXh0LWFsaWduOiBzdGFydDsiPjxzcGFuIGNsYXNzPSJub2RlTGFiZWwiPjxwPkZLPC9wPjwvc3Bhbj48L2Rpdj48L2ZvcmVpZ25PYmplY3Q+PC9nPjxnIGNsYXNzPSJsYWJlbCBhdHRyaWJ1dGUtY29tbWVudCIgdHJhbnNmb3JtPSJ0cmFuc2xhdGUoMTM2LjM2NzE4NzUsIDY5KSIgc3R5bGU9IiI+PGZvcmVpZ25PYmplY3Qgd2lkdGg9IjAiIGhlaWdodD0iMCI+PGRpdiB4bWxucz0iaHR0cDovL3d3dy53My5vcmcvMTk5OS94aHRtbCIgc3R5bGU9ImRpc3BsYXk6IHRhYmxlLWNlbGw7IHdoaXRlLXNwYWNlOiBub3JtYWw7IGxpbmUtaGVpZ2h0OiAxLjU7IG1heC13aWR0aDogMTAwcHg7IHRleHQtYWxpZ246IHN0YXJ0OyI+PHNwYW4gY2xhc3M9Im5vZGVMYWJlbCI+PC9zcGFuPjwvZGl2PjwvZm9yZWlnbk9iamVjdD48L2c+PGcgY2xhc3M9ImRpdmlkZXIiPjxwYXRoIGQ9Ik0tMTIzLjg2NzE4NzUgLTU5LjYyNSBDLTI1LjE0NzM2MDQwNjA4OTE1IC01OS42MjUsIDczLjU3MjQ2NjY4NzgyMTcgLTU5LjYyNSwgMTIzLjg2NzE4NzUgLTU5LjYyNSBNLTEyMy44NjcxODc1IC01OS42MjUgQy00MS42MzEyNzE1MzExNjcgLTU5LjYyNSwgNDAuNjA0NjQ0NDM3NjY1OTk2IC01OS42MjUsIDEyMy44NjcxODc1IC01OS42MjUiIHN0cm9rZT0iIzAwMDAwMCIgc3Ryb2tlLXdpZHRoPSIxLjMiIGZpbGw9Im5vbmUiLz48L2c+PGcgY2xhc3M9ImRpdmlkZXIiPjxwYXRoIGQ9Ik0tNjQuNjMyODEyNSAtNTkuNjI1IEMtNjQuNjMyODEyNSAtMjYuMjIzMjUwMTc5MzU1MjksIC02NC42MzI4MTI1IDcuMTc4NDk5NjQxMjg5NDIsIC02NC42MzI4MTI1IDk5LjM3NSBNLTY0LjYzMjgxMjUgLTU5LjYyNSBDLTY0LjYzMjgxMjUgLTIwLjM3MjYxOTIzODg4NTgxLCAtNjQuNjMyODEyNSAxOC44Nzk3NjE1MjIyMjgzNzgsIC02NC42MzI4MTI1IDk5LjM3NSIgc3Ryb2tlPSIjMDAwMDAwIiBzdHJva2Utd2lkdGg9IjEuMyIgZmlsbD0ibm9uZSIvPjwvZz48ZyBjbGFzcz0iZGl2aWRlciI+PHBhdGggZD0iTTgwLjE4NzUgLTU5LjYyNSBDODAuMTg3NSAtMC43MjQxNzA1MzIxMTg1NDIxLCA4MC4xODc1IDU4LjE3NjY1ODkzNTc2MjkxNiwgODAuMTg3NSA5OS4zNzUgTTgwLjE4NzUgLTU5LjYyNSBDODAuMTg3NSAtMTUuMDk5NjA1OTQ2NTc5NDE2LCA4MC4xODc1IDI5LjQyNTc4ODEwNjg0MTE2OCwgODAuMTg3NSA5OS4zNzUiIHN0cm9rZT0iIzAwMDAwMCIgc3Ryb2tlLXdpZHRoPSIxLjMiIGZpbGw9Im5vbmUiLz48L2c+PGcgY2xhc3M9ImRpdmlkZXIiPjxwYXRoIGQ9Ik0tMTIzLjg2NzE4NzUgLTE5Ljg3NSBDLTM0LjAyNzQxMjA5Nzk2NjIwNiAtMTkuODc1LCA1NS44MTIzNjMzMDQwNjc1OSAtMTkuODc1LCAxMjMuODY3MTg3NSAtMTkuODc1IE0tMTIzLjg2NzE4NzUgLTE5Ljg3NSBDLTM4LjgxNDM4MTYxMzA5NDkyIC0xOS44NzUsIDQ2LjIzODQyNDI3MzgxMDE1IC0xOS44NzUsIDEyMy44NjcxODc1IC0xOS44NzUiIHN0cm9rZT0iIzAwMDAwMCIgc3Ryb2tlLXdpZHRoPSIxLjMiIGZpbGw9Im5vbmUiLz48L2c+PGcgY2xhc3M9ImRpdmlkZXIiPjxwYXRoIGQ9Ik0tMTIzLjg2NzE4NzUgMTkuODc1IEMtNjkuODkxODA4ODQyODUyNzggMTkuODc1LCAtMTUuOTE2NDMwMTg1NzA1NTY1IDE5Ljg3NSwgMTIzLjg2NzE4NzUgMTkuODc1IE0tMTIzLjg2NzE4NzUgMTkuODc1IEMtNDAuNTg1NzQwMDEzOTMxODI2IDE5Ljg3NSwgNDIuNjk1NzA3NDcyMTM2MzUgMTkuODc1LCAxMjMuODY3MTg3NSAxOS44NzUiIHN0cm9rZT0iIzAwMDAwMCIgc3Ryb2tlLXdpZHRoPSIxLjMiIGZpbGw9Im5vbmUiLz48L2c+PGcgY2xhc3M9ImRpdmlkZXIiPjxwYXRoIGQ9Ik0tMTIzLjg2NzE4NzUgNTkuNjI1IEMtNTkuODM1MjYxMzgxMTk1NDIgNTkuNjI1LCA0LjE5NjY2NDczNzYwOTE1NCA1OS42MjUsIDEyMy44NjcxODc1IDU5LjYyNSBNLTEyMy44NjcxODc1IDU5LjYyNSBDLTY1LjY3NTA0NTQ0MTM4OTY2IDU5LjYyNSwgLTcuNDgyOTAzMzgyNzc5MzEyNiA1OS42MjUsIDEyMy44NjcxODc1IDU5LjYyNSIgc3Ryb2tlPSIjMDAwMDAwIiBzdHJva2Utd2lkdGg9IjEuMyIgZmlsbD0ibm9uZSIvPjwvZz48ZyBjbGFzcz0iZGl2aWRlciI+PHBhdGggZD0iTS0xMjMuODY3MTg3NSAtNTkuNjI1IEMtNTMuOTYyOTU1NTE3NzQ4MjQgLTU5LjYyNSwgMTUuOTQxMjc2NDY0NTAzNTE3IC01OS42MjUsIDEyMy44NjcxODc1IC01OS42MjUgTS0xMjMuODY3MTg3NSAtNTkuNjI1IEMtNTMuMzg2MDY4MzEzNTA2OCAtNTkuNjI1LCAxNy4wOTUwNTA4NzI5ODY0MDUgLTU5LjYyNSwgMTIzLjg2NzE4NzUgLTU5LjYyNSIgc3Ryb2tlPSIjMDAwMDAwIiBzdHJva2Utd2lkdGg9IjEuMyIgZmlsbD0ibm9uZSIvPjwvZz48L2c+PGcgY2xhc3M9Im5vZGUgZGVmYXVsdCIgaWQ9ImVudGl0eS1XaXNoTGlzdEl0ZW0tMiIgZGF0YS1pZD0iZW50aXR5LVdpc2hMaXN0SXRlbS0yIiBkYXRhLW5vZGU9InRydWUiIGRhdGEtZXQ9Im5vZGUiIGRhdGEtbG9vaz0ibmVvIiB0cmFuc2Zvcm09InRyYW5zbGF0ZSgxMjQuMTAxNTYyNSwgMTQ3LjEyNSkiPjxnIHN0eWxlPSIiPjxwYXRoIGQ9Ik0tMTE2LjEwMTU2MjUgLTEzOS4xMjUgTDExNi4xMDE1NjI1IC0xMzkuMTI1IEwxMTYuMTAxNTYyNSAxMzkuMTI1IEwtMTE2LjEwMTU2MjUgMTM5LjEyNSIgc3Ryb2tlPSJub25lIiBzdHJva2Utd2lkdGg9IjAiIGZpbGw9IiNmZmZmZmYiLz48cGF0aCBkPSJNLTExNi4xMDE1NjI1IC0xMzkuMTI1IEMtNjUuNzc5MzI0MTUzNzY2NDUgLTEzOS4xMjUsIC0xNS40NTcwODU4MDc1MzI4OTEgLTEzOS4xMjUsIDExNi4xMDE1NjI1IC0xMzkuMTI1IE0tMTE2LjEwMTU2MjUgLTEzOS4xMjUgQy00Ny44MjI3ODMwMTI3ODA2NSAtMTM5LjEyNSwgMjAuNDU1OTk2NDc0NDM4NzA2IC0xMzkuMTI1LCAxMTYuMTAxNTYyNSAtMTM5LjEyNSBNMTE2LjEwMTU2MjUgLTEzOS4xMjUgQzExNi4xMDE1NjI1IC02Ny4wOTU1NDM3MjUzNDgzOSwgMTE2LjEwMTU2MjUgNC45MzM5MTI1NDkzMDMyMTYsIDExNi4xMDE1NjI1IDEzOS4xMjUgTTExNi4xMDE1NjI1IC0xMzkuMTI1IEMxMTYuMTAxNTYyNSAtNjEuNzgwMTQ2Mjg1NDQxNTYsIDExNi4xMDE1NjI1IDE1LjU2NDcwNzQyOTExNjg4LCAxMTYuMTAxNTYyNSAxMzkuMTI1IE0xMTYuMTAxNTYyNSAxMzkuMTI1IEM1MS4zOTcwNDc0OTU1ODg5OCAxMzkuMTI1LCAtMTMuMzA3NDY3NTA4ODIyMDQzIDEzOS4xMjUsIC0xMTYuMTAxNTYyNSAxMzkuMTI1IE0xMTYuMTAxNTYyNSAxMzkuMTI1IEM1OS42OTA2OTMwODE0OTQwNTQgMTM5LjEyNSwgMy4yNzk4MjM2NjI5ODgxMDc1IDEzOS4xMjUsIC0xMTYuMTAxNTYyNSAxMzkuMTI1IE0tMTE2LjEwMTU2MjUgMTM5LjEyNSBDLTExNi4xMDE1NjI1IDUyLjM0NzE4OTY2MTI3NzE4NCwgLTExNi4xMDE1NjI1IC0zNC40MzA2MjA2Nzc0NDU2MywgLTExNi4xMDE1NjI1IC0xMzkuMTI1IE0tMTE2LjEwMTU2MjUgMTM5LjEyNSBDLTExNi4xMDE1NjI1IDY3LjYzMDU2Mjg3MDAxMjE3LCAtMTE2LjEwMTU2MjUgLTMuODYzODc0MjU5OTc1NjU5NywgLTExNi4xMDE1NjI1IC0xMzkuMTI1IiBzdHJva2U9IiMwMDAwMDAiIHN0cm9rZS13aWR0aD0iMS4zIiBmaWxsPSJub25lIi8+PC9nPjxnIHN0eWxlPSIiIGNsYXNzPSJyb3ctcmVjdC1vZGQiPjxwYXRoIGQ9Ik0tMTE2LjEwMTU2MjUgLTE5Ljg3NSBDLTQyLjU4MjE0MTU1MTYwMzQgLTE5Ljg3NSwgMzAuOTM3Mjc5Mzk2NzkzMiAtMTkuODc1LCAxMTYuMTAxNTYyNSAtMTkuODc1IE0tMTE2LjEwMTU2MjUgLTE5Ljg3NSBDLTI0LjAzMTcxNjI2MjA5MjUxNiAtMTkuODc1LCA2OC4wMzgxMjk5NzU4MTQ5NyAtMTkuODc1LCAxMTYuMTAxNTYyNSAtMTkuODc1IE0xMTYuMTAxNTYyNSAtMTkuODc1IEMxMTYuMTAxNTYyNSAtNy40Mzc5ODE5NjM1NTk5NzcsIDExNi4xMDE1NjI1IDQuOTk5MDM2MDcyODgwMDQ1LCAxMTYuMTAxNTYyNSAxOS44NzUgTTExNi4xMDE1NjI1IC0xOS44NzUgQzExNi4xMDE1NjI1IC0xMS4zOTg0MjU2NDI2NzY3ODIsIDExNi4xMDE1NjI1IC0yLjkyMTg1MTI4NTM1MzU2NSwgMTE2LjEwMTU2MjUgMTkuODc1IE0xMTYuMTAxNTYyNSAxOS44NzUgQzI1Ljk3NDY5Njg4OTY3Nzc3MyAxOS44NzUsIC02NC4xNTIxNjg3MjA2NDQ0NSAxOS44NzUsIC0xMTYuMTAxNTYyNSAxOS44NzUgTTExNi4xMDE1NjI1IDE5Ljg3NSBDNDguNTExMTgwMTI5NjE1OTk0IDE5Ljg3NSwgLTE5LjA3OTIwMjI0MDc2ODAxMiAxOS44NzUsIC0xMTYuMTAxNTYyNSAxOS44NzUgTS0xMTYuMTAxNTYyNSAxOS44NzUgQy0xMTYuMTAxNTYyNSA1LjY0ODUxMjQxNzQ1NTgzNCwgLTExNi4xMDE1NjI1IC04LjU3Nzk3NTE2NTA4ODMzMywgLTExNi4xMDE1NjI1IC0xOS44NzUgTS0xMTYuMTAxNTYyNSAxOS44NzUgQy0xMTYuMTAxNTYyNSA3LjgyMDQxOTAwNzg3NDI1MzUsIC0xMTYuMTAxNTYyNSAtNC4yMzQxNjE5ODQyNTE0OTMsIC0xMTYuMTAxNTYyNSAtMTkuODc1IiBzdHJva2U9IiMwMDAwMDAiIHN0cm9rZS13aWR0aD0iMS4zIiBmaWxsPSJub25lIi8+PC9nPjxnIHN0eWxlPSIiIGNsYXNzPSJyb3ctcmVjdC1ldmVuIj48cGF0aCBkPSJNLTExNi4xMDE1NjI1IDE5Ljg3NSBDLTI4LjcxNTExNjM3OTUyNzU3MiAxOS44NzUsIDU4LjY3MTMyOTc0MDk0NDg1NiAxOS44NzUsIDExNi4xMDE1NjI1IDE5Ljg3NSBNLTExNi4xMDE1NjI1IDE5Ljg3NSBDLTQwLjA1NzQyNzI0MjE1MDU3IDE5Ljg3NSwgMzUuOTg2NzA4MDE1Njk4ODY2IDE5Ljg3NSwgMTE2LjEwMTU2MjUgMTkuODc1IE0xMTYuMTAxNTYyNSAxOS44NzUgQzExNi4xMDE1NjI1IDM0Ljg1ODUyNDgwNDg2ODA1NCwgMTE2LjEwMTU2MjUgNDkuODQyMDQ5NjA5NzM2MTEsIDExNi4xMDE1NjI1IDU5LjYyNSBNMTE2LjEwMTU2MjUgMTkuODc1IEMxMTYuMTAxNTYyNSAzNC44ODYxODUxMDY0MzE1MSwgMTE2LjEwMTU2MjUgNDkuODk3MzcwMjEyODYzMDMsIDExNi4xMDE1NjI1IDU5LjYyNSBNMTE2LjEwMTU2MjUgNTkuNjI1IEMzMi45MTMxMjUyMzc5NzEzNCA1OS42MjUsIC01MC4yNzUzMTIwMjQwNTczMTQgNTkuNjI1LCAtMTE2LjEwMTU2MjUgNTkuNjI1IE0xMTYuMTAxNTYyNSA1OS42MjUgQzU2LjcyMDU3MTY0NjUzODUyNCA1OS42MjUsIC0yLjY2MDQxOTIwNjkyMjk1MjYgNTkuNjI1LCAtMTE2LjEwMTU2MjUgNTkuNjI1IE0tMTE2LjEwMTU2MjUgNTkuNjI1IEMtMTE2LjEwMTU2MjUgNDQuMTQ0ODkzMjc1NjY4MjEsIC0xMTYuMTAxNTYyNSAyOC42NjQ3ODY1NTEzMzY0MTIsIC0xMTYuMTAxNTYyNSAxOS44NzUgTS0xMTYuMTAxNTYyNSA1OS42MjUgQy0xMTYuMTAxNTYyNSA0Ni40MTEwMDUwNjE3OTIxMywgLTExNi4xMDE1NjI1IDMzLjE5NzAxMDEyMzU4NDI2LCAtMTE2LjEwMTU2MjUgMTkuODc1IiBzdHJva2U9IiMwMDAwMDAiIHN0cm9rZS13aWR0aD0iMS4zIiBmaWxsPSJub25lIi8+PC9nPjxnIHN0eWxlPSIiIGNsYXNzPSJyb3ctcmVjdC1vZGQiPjxwYXRoIGQ9Ik0tMTE2LjEwMTU2MjUgNTkuNjI1IEMtNTcuOTI0NTYyMjcyOTkwNSA1OS42MjUsIDAuMjUyNDM3OTU0MDE5MDAxMTUgNTkuNjI1LCAxMTYuMTAxNTYyNSA1OS42MjUgTS0xMTYuMTAxNTYyNSA1OS42MjUgQy0zNC41NDMxNDgwNDEyODI5MDUgNTkuNjI1LCA0Ny4wMTUyNjY0MTc0MzQxOSA1OS42MjUsIDExNi4xMDE1NjI1IDU5LjYyNSBNMTE2LjEwMTU2MjUgNTkuNjI1IEMxMTYuMTAxNTYyNSA3My4yOTM4NDEwNDI5Njc1NiwgMTE2LjEwMTU2MjUgODYuOTYyNjgyMDg1OTM1MTEsIDExNi4xMDE1NjI1IDk5LjM3NSBNMTE2LjEwMTU2MjUgNTkuNjI1IEMxMTYuMTAxNTYyNSA3MC4zMjEwMTA5NzQ5ODgwNCwgMTE2LjEwMTU2MjUgODEuMDE3MDIxOTQ5OTc2MSwgMTE2LjEwMTU2MjUgOTkuMzc1IE0xMTYuMTAxNTYyNSA5OS4zNzUgQzM3Ljk0MTIxNTI4ODk1MjU2IDk5LjM3NSwgLTQwLjIxOTEzMTkyMjA5NDg3NCA5OS4zNzUsIC0xMTYuMTAxNTYyNSA5OS4zNzUgTTExNi4xMDE1NjI1IDk5LjM3NSBDNDEuMzE2NTc3NjMwNTgwNDcgOTkuMzc1LCAtMzMuNDY4NDA3MjM4ODM5MDYgOTkuMzc1LCAtMTE2LjEwMTU2MjUgOTkuMzc1IE0tMTE2LjEwMTU2MjUgOTkuMzc1IEMtMTE2LjEwMTU2MjUgOTAuNTczMTYwNzE4MTc1ODMsIC0xMTYuMTAxNTYyNSA4MS43NzEzMjE0MzYzNTE2NiwgLTExNi4xMDE1NjI1IDU5LjYyNSBNLTExNi4xMDE1NjI1IDk5LjM3NSBDLTExNi4xMDE1NjI1IDg2LjU5NDUzMzk2MjIwNjYxLCAtMTE2LjEwMTU2MjUgNzMuODE0MDY3OTI0NDEzMjEsIC0xMTYuMTAxNTYyNSA1OS42MjUiIHN0cm9rZT0iIzAwMDAwMCIgc3Ryb2tlLXdpZHRoPSIxLjMiIGZpbGw9Im5vbmUiLz48L2c+PGcgc3R5bGU9IiIgY2xhc3M9InJvdy1yZWN0LWV2ZW4iPjxwYXRoIGQ9Ik0tMTE2LjEwMTU2MjUgOTkuMzc1IEMtMzQuNTg0NzMzNDc3MjUxNyA5OS4zNzUsIDQ2LjkzMjA5NTU0NTQ5NjU5NCA5OS4zNzUsIDExNi4xMDE1NjI1IDk5LjM3NSBNLTExNi4xMDE1NjI1IDk5LjM3NSBDLTM2LjM4ODQzMDAzNzc0OTY0IDk5LjM3NSwgNDMuMzI0NzAyNDI0NTAwNzE0IDk5LjM3NSwgMTE2LjEwMTU2MjUgOTkuMzc1IE0xMTYuMTAxNTYyNSA5OS4zNzUgQzExNi4xMDE1NjI1IDEwOS43NzUyMTQ1Mzk2OTQyOCwgMTE2LjEwMTU2MjUgMTIwLjE3NTQyOTA3OTM4ODU2LCAxMTYuMTAxNTYyNSAxMzkuMTI1IE0xMTYuMTAxNTYyNSA5OS4zNzUgQzExNi4xMDE1NjI1IDExNC4zMjA5MjY5MTY1NTExOSwgMTE2LjEwMTU2MjUgMTI5LjI2Njg1MzgzMzEwMjM3LCAxMTYuMTAxNTYyNSAxMzkuMTI1IE0xMTYuMTAxNTYyNSAxMzkuMTI1IEM0My4yMTgyOTMzNzY3MDg0NiAxMzkuMTI1LCAtMjkuNjY0OTc1NzQ2NTgzMDggMTM5LjEyNSwgLTExNi4xMDE1NjI1IDEzOS4xMjUgTTExNi4xMDE1NjI1IDEzOS4xMjUgQzU4LjEwMTg1Mzk5MTg2MDUzIDEzOS4xMjUsIDAuMTAyMTQ1NDgzNzIxMDU5OCAxMzkuMTI1LCAtMTE2LjEwMTU2MjUgMTM5LjEyNSBNLTExNi4xMDE1NjI1IDEzOS4xMjUgQy0xMTYuMTAxNTYyNSAxMzAuNjg2Nzk5NDI3MTMwMTMsIC0xMTYuMTAxNTYyNSAxMjIuMjQ4NTk4ODU0MjYwMjQsIC0xMTYuMTAxNTYyNSA5OS4zNzUgTS0xMTYuMTAxNTYyNSAxMzkuMTI1IEMtMTE2LjEwMTU2MjUgMTI2LjkyNTAzNTU4NTgxMzk5LCAtMTE2LjEwMTU2MjUgMTE0LjcyNTA3MTE3MTYyNzk3LCAtMTE2LjEwMTU2MjUgOTkuMzc1IiBzdHJva2U9IiMwMDAwMDAiIHN0cm9rZS13aWR0aD0iMS4zIiBmaWxsPSJub25lIi8+PC9nPjxnIHN0eWxlPSIiIGNsYXNzPSJyb3ctcmVjdC1vZGQiPjxwYXRoIGQ9Ik0tMTE2LjEwMTU2MjUgLTk5LjM3NSBDLTYwLjk3ODIyNzMwODI4OTYxIC05OS4zNzUsIC01Ljg1NDg5MjExNjU3OTIyMiAtOTkuMzc1LCAxMTYuMTAxNTYyNSAtOTkuMzc1IE0tMTE2LjEwMTU2MjUgLTk5LjM3NSBDLTUwLjk3MDE1ODUwNTU2MDg3NSAtOTkuMzc1LCAxNC4xNjEyNDU0ODg4NzgyNSAtOTkuMzc1LCAxMTYuMTAxNTYyNSAtOTkuMzc1IE0xMTYuMTAxNTYyNSAtOTkuMzc1IEMxMTYuMTAxNTYyNSAtOTAuNDc1NzY2MTIxODk0OTQsIDExNi4xMDE1NjI1IC04MS41NzY1MzIyNDM3ODk4NiwgMTE2LjEwMTU2MjUgLTU5LjYyNSBNMTE2LjEwMTU2MjUgLTk5LjM3NSBDMTE2LjEwMTU2MjUgLTgzLjYzMTc4NDk3ODMwMjQ2LCAxMTYuMTAxNTYyNSAtNjcuODg4NTY5OTU2NjA0OTMsIDExNi4xMDE1NjI1IC01OS42MjUgTTExNi4xMDE1NjI1IC01OS42MjUgQzY3LjM4MDg1OTc1MTM3MzY5IC01OS42MjUsIDE4LjY2MDE1NzAwMjc0NzM5NyAtNTkuNjI1LCAtMTE2LjEwMTU2MjUgLTU5LjYyNSBNMTE2LjEwMTU2MjUgLTU5LjYyNSBDNDEuMDI1OTE0NzAxNTM2NDUgLTU5LjYyNSwgLTM0LjA0OTczMzA5NjkyNzEgLTU5LjYyNSwgLTExNi4xMDE1NjI1IC01OS42MjUgTS0xMTYuMTAxNTYyNSAtNTkuNjI1IEMtMTE2LjEwMTU2MjUgLTY4LjU2OTAzNDExODAzMDkzLCAtMTE2LjEwMTU2MjUgLTc3LjUxMzA2ODIzNjA2MTg2LCAtMTE2LjEwMTU2MjUgLTk5LjM3NSBNLTExNi4xMDE1NjI1IC01OS42MjUgQy0xMTYuMTAxNTYyNSAtNzAuNDU4NTY2MDEzMTg3NDYsIC0xMTYuMTAxNTYyNSAtODEuMjkyMTMyMDI2Mzc0OTIsIC0xMTYuMTAxNTYyNSAtOTkuMzc1IiBzdHJva2U9IiMwMDAwMDAiIHN0cm9rZS13aWR0aD0iMS4zIiBmaWxsPSJub25lIi8+PC9nPjxnIGNsYXNzPSJsYWJlbCBuYW1lIiB0cmFuc2Zvcm09InRyYW5zbGF0ZSgtNDAuMDYyNSwgLTEyOS43NSkiIHN0eWxlPSIiPjxmb3JlaWduT2JqZWN0IHdpZHRoPSI4MC4xMjUiIGhlaWdodD0iMjEiPjxkaXYgeG1sbnM9Imh0dHA6Ly93d3cudzMub3JnLzE5OTkveGh0bWwiIHN0eWxlPSJkaXNwbGF5OiB0YWJsZS1jZWxsOyB3aGl0ZS1zcGFjZTogbm9ybWFsOyBsaW5lLWhlaWdodDogMS41OyBtYXgtd2lkdGg6IDIwOXB4OyB0ZXh0LWFsaWduOiBzdGFydDsiPjxzcGFuIGNsYXNzPSJub2RlTGFiZWwiPjxwPldpc2hMaXN0SXRlbTwvcD48L3NwYW4+PC9kaXY+PC9mb3JlaWduT2JqZWN0PjwvZz48ZyBjbGFzcz0ibGFiZWwgYXR0cmlidXRlLXR5cGUiIHRyYW5zZm9ybT0idHJhbnNsYXRlKC0xMDMuNjAxNTYyNSwgLTkwKSIgc3R5bGU9IiI+PGZvcmVpZ25PYmplY3Qgd2lkdGg9IjE0Ljc4OTA2MjUiIGhlaWdodD0iMjEiPjxkaXYgeG1sbnM9Imh0dHA6Ly93d3cudzMub3JnLzE5OTkveGh0bWwiIHN0eWxlPSJkaXNwbGF5OiB0YWJsZS1jZWxsOyB3aGl0ZS1zcGFjZTogbm9ybWFsOyBsaW5lLWhlaWdodDogMS41OyBtYXgtd2lkdGg6IDEyM3B4OyB0ZXh0LWFsaWduOiBzdGFydDsiPjxzcGFuIGNsYXNzPSJub2RlTGFiZWwiPjxwPmludDwvcD48L3NwYW4+PC9kaXY+PC9mb3JlaWduT2JqZWN0PjwvZz48ZyBjbGFzcz0ibGFiZWwgYXR0cmlidXRlLW5hbWUiIHRyYW5zZm9ybT0idHJhbnNsYXRlKC0zNi41NTQ2ODc1LCAtOTApIiBzdHlsZT0iIj48Zm9yZWlnbk9iamVjdCB3aWR0aD0iMzguMTI1IiBoZWlnaHQ9IjIxIj48ZGl2IHhtbG5zPSJodHRwOi8vd3d3LnczLm9yZy8xOTk5L3hodG1sIiBzdHlsZT0iZGlzcGxheTogdGFibGUtY2VsbDsgd2hpdGUtc3BhY2U6IG5vcm1hbDsgbGluZS1oZWlnaHQ6IDEuNTsgbWF4LXdpZHRoOiAxNTRweDsgdGV4dC1hbGlnbjogc3RhcnQ7Ij48c3BhbiBjbGFzcz0ibm9kZUxhYmVsIj48cD5pdGVtSWQ8L3A+PC9zcGFuPjwvZGl2PjwvZm9yZWlnbk9iamVjdD48L2c+PGcgY2xhc3M9ImxhYmVsIGF0dHJpYnV0ZS1rZXlzIiB0cmFuc2Zvcm09InRyYW5zbGF0ZSg4NC45MjE4NzUsIC05MCkiIHN0eWxlPSIiPjxmb3JlaWduT2JqZWN0IHdpZHRoPSIxOC42Nzk2ODc1IiBoZWlnaHQ9IjIxIj48ZGl2IHhtbG5zPSJodHRwOi8vd3d3LnczLm9yZy8xOTk5L3hodG1sIiBzdHlsZT0iZGlzcGxheTogdGFibGUtY2VsbDsgd2hpdGUtc3BhY2U6IG5vcm1hbDsgbGluZS1oZWlnaHQ6IDEuNTsgbWF4LXdpZHRoOiAxMTlweDsgdGV4dC1hbGlnbjogc3RhcnQ7Ij48c3BhbiBjbGFzcz0ibm9kZUxhYmVsIj48cD5QSzwvcD48L3NwYW4+PC9kaXY+PC9mb3JlaWduT2JqZWN0PjwvZz48ZyBjbGFzcz0ibGFiZWwgYXR0cmlidXRlLWNvbW1lbnQiIHRyYW5zZm9ybT0idHJhbnNsYXRlKDEyOC42MDE1NjI1LCAtOTApIiBzdHlsZT0iIj48Zm9yZWlnbk9iamVjdCB3aWR0aD0iMCIgaGVpZ2h0PSIwIj48ZGl2IHhtbG5zPSJodHRwOi8vd3d3LnczLm9yZy8xOTk5L3hodG1sIiBzdHlsZT0iZGlzcGxheTogdGFibGUtY2VsbDsgd2hpdGUtc3BhY2U6IG5vcm1hbDsgbGluZS1oZWlnaHQ6IDEuNTsgbWF4LXdpZHRoOiAxMDBweDsgdGV4dC1hbGlnbjogc3RhcnQ7Ij48c3BhbiBjbGFzcz0ibm9kZUxhYmVsIj48L3NwYW4+PC9kaXY+PC9mb3JlaWduT2JqZWN0PjwvZz48ZyBjbGFzcz0ibGFiZWwgYXR0cmlidXRlLXR5cGUiIHRyYW5zZm9ybT0idHJhbnNsYXRlKC0xMDMuNjAxNTYyNSwgLTUwLjI1KSIgc3R5bGU9IiI+PGZvcmVpZ25PYmplY3Qgd2lkdGg9IjM0LjIzNDM3NSIgaGVpZ2h0PSIyMSI+PGRpdiB4bWxucz0iaHR0cDovL3d3dy53My5vcmcvMTk5OS94aHRtbCIgc3R5bGU9ImRpc3BsYXk6IHRhYmxlLWNlbGw7IHdoaXRlLXNwYWNlOiBub3JtYWw7IGxpbmUtaGVpZ2h0OiAxLjU7IG1heC13aWR0aDogMTQ4cHg7IHRleHQtYWxpZ246IHN0YXJ0OyI+PHNwYW4gY2xhc3M9Im5vZGVMYWJlbCI+PHA+c3RyaW5nPC9wPjwvc3Bhbj48L2Rpdj48L2ZvcmVpZ25PYmplY3Q+PC9nPjxnIGNsYXNzPSJsYWJlbCBhdHRyaWJ1dGUtbmFtZSIgdHJhbnNmb3JtPSJ0cmFuc2xhdGUoLTM2LjU1NDY4NzUsIC01MC4yNSkiIHN0eWxlPSIiPjxmb3JlaWduT2JqZWN0IHdpZHRoPSI2My43OTY4NzUiIGhlaWdodD0iMjEiPjxkaXYgeG1sbnM9Imh0dHA6Ly93d3cudzMub3JnLzE5OTkveGh0bWwiIHN0eWxlPSJkaXNwbGF5OiB0YWJsZS1jZWxsOyB3aGl0ZS1zcGFjZTogbm9ybWFsOyBsaW5lLWhlaWdodDogMS41OyBtYXgtd2lkdGg6IDE4MHB4OyB0ZXh0LWFsaWduOiBzdGFydDsiPjxzcGFuIGNsYXNzPSJub2RlTGFiZWwiPjxwPml0ZW1OYW1lPC9wPjwvc3Bhbj48L2Rpdj48L2ZvcmVpZ25PYmplY3Q+PC9nPjxnIGNsYXNzPSJsYWJlbCBhdHRyaWJ1dGUta2V5cyIgdHJhbnNmb3JtPSJ0cmFuc2xhdGUoODQuOTIxODc1LCAtNTAuMjUpIiBzdHlsZT0iIj48Zm9yZWlnbk9iamVjdCB3aWR0aD0iMCIgaGVpZ2h0PSIwIj48ZGl2IHhtbG5zPSJodHRwOi8vd3d3LnczLm9yZy8xOTk5L3hodG1sIiBzdHlsZT0iZGlzcGxheTogdGFibGUtY2VsbDsgd2hpdGUtc3BhY2U6IG5vcm1hbDsgbGluZS1oZWlnaHQ6IDEuNTsgbWF4LXdpZHRoOiAxMDBweDsgdGV4dC1hbGlnbjogc3RhcnQ7Ij48c3BhbiBjbGFzcz0ibm9kZUxhYmVsIj48L3NwYW4+PC9kaXY+PC9mb3JlaWduT2JqZWN0PjwvZz48ZyBjbGFzcz0ibGFiZWwgYXR0cmlidXRlLWNvbW1lbnQiIHRyYW5zZm9ybT0idHJhbnNsYXRlKDEyOC42MDE1NjI1LCAtNTAuMjUpIiBzdHlsZT0iIj48Zm9yZWlnbk9iamVjdCB3aWR0aD0iMCIgaGVpZ2h0PSIwIj48ZGl2IHhtbG5zPSJodHRwOi8vd3d3LnczLm9yZy8xOTk5L3hodG1sIiBzdHlsZT0iZGlzcGxheTogdGFibGUtY2VsbDsgd2hpdGUtc3BhY2U6IG5vcm1hbDsgbGluZS1oZWlnaHQ6IDEuNTsgbWF4LXdpZHRoOiAxMDBweDsgdGV4dC1hbGlnbjogc3RhcnQ7Ij48c3BhbiBjbGFzcz0ibm9kZUxhYmVsIj48L3NwYW4+PC9kaXY+PC9mb3JlaWduT2JqZWN0PjwvZz48ZyBjbGFzcz0ibGFiZWwgYXR0cmlidXRlLXR5cGUiIHRyYW5zZm9ybT0idHJhbnNsYXRlKC0xMDMuNjAxNTYyNSwgLTEwLjUpIiBzdHlsZT0iIj48Zm9yZWlnbk9iamVjdCB3aWR0aD0iMzQuMjM0Mzc1IiBoZWlnaHQ9IjIxIj48ZGl2IHhtbG5zPSJodHRwOi8vd3d3LnczLm9yZy8xOTk5L3hodG1sIiBzdHlsZT0iZGlzcGxheTogdGFibGUtY2VsbDsgd2hpdGUtc3BhY2U6IG5vcm1hbDsgbGluZS1oZWlnaHQ6IDEuNTsgbWF4LXdpZHRoOiAxNDhweDsgdGV4dC1hbGlnbjogc3RhcnQ7Ij48c3BhbiBjbGFzcz0ibm9kZUxhYmVsIj48cD5zdHJpbmc8L3A+PC9zcGFuPjwvZGl2PjwvZm9yZWlnbk9iamVjdD48L2c+PGcgY2xhc3M9ImxhYmVsIGF0dHJpYnV0ZS1uYW1lIiB0cmFuc2Zvcm09InRyYW5zbGF0ZSgtMzYuNTU0Njg3NSwgLTEwLjUpIiBzdHlsZT0iIj48Zm9yZWlnbk9iamVjdCB3aWR0aD0iOTYuNDc2NTYyNSIgaGVpZ2h0PSIyMSI+PGRpdiB4bWxucz0iaHR0cDovL3d3dy53My5vcmcvMTk5OS94aHRtbCIgc3R5bGU9ImRpc3BsYXk6IHRhYmxlLWNlbGw7IHdoaXRlLXNwYWNlOiBub3JtYWw7IGxpbmUtaGVpZ2h0OiAxLjU7IG1heC13aWR0aDogMjI4cHg7IHRleHQtYWxpZ246IHN0YXJ0OyI+PHNwYW4gY2xhc3M9Im5vZGVMYWJlbCI+PHA+aXRlbURlc2NyaXB0aW9uPC9wPjwvc3Bhbj48L2Rpdj48L2ZvcmVpZ25PYmplY3Q+PC9nPjxnIGNsYXNzPSJsYWJlbCBhdHRyaWJ1dGUta2V5cyIgdHJhbnNmb3JtPSJ0cmFuc2xhdGUoODQuOTIxODc1LCAtMTAuNSkiIHN0eWxlPSIiPjxmb3JlaWduT2JqZWN0IHdpZHRoPSIwIiBoZWlnaHQ9IjAiPjxkaXYgeG1sbnM9Imh0dHA6Ly93d3cudzMub3JnLzE5OTkveGh0bWwiIHN0eWxlPSJkaXNwbGF5OiB0YWJsZS1jZWxsOyB3aGl0ZS1zcGFjZTogbm9ybWFsOyBsaW5lLWhlaWdodDogMS41OyBtYXgtd2lkdGg6IDEwMHB4OyB0ZXh0LWFsaWduOiBzdGFydDsiPjxzcGFuIGNsYXNzPSJub2RlTGFiZWwiPjwvc3Bhbj48L2Rpdj48L2ZvcmVpZ25PYmplY3Q+PC9nPjxnIGNsYXNzPSJsYWJlbCBhdHRyaWJ1dGUtY29tbWVudCIgdHJhbnNmb3JtPSJ0cmFuc2xhdGUoMTI4LjYwMTU2MjUsIC0xMC41KSIgc3R5bGU9IiI+PGZvcmVpZ25PYmplY3Qgd2lkdGg9IjAiIGhlaWdodD0iMCI+PGRpdiB4bWxucz0iaHR0cDovL3d3dy53My5vcmcvMTk5OS94aHRtbCIgc3R5bGU9ImRpc3BsYXk6IHRhYmxlLWNlbGw7IHdoaXRlLXNwYWNlOiBub3JtYWw7IGxpbmUtaGVpZ2h0OiAxLjU7IG1heC13aWR0aDogMTAwcHg7IHRleHQtYWxpZ246IHN0YXJ0OyI+PHNwYW4gY2xhc3M9Im5vZGVMYWJlbCI+PC9zcGFuPjwvZGl2PjwvZm9yZWlnbk9iamVjdD48L2c+PGcgY2xhc3M9ImxhYmVsIGF0dHJpYnV0ZS10eXBlIiB0cmFuc2Zvcm09InRyYW5zbGF0ZSgtMTAzLjYwMTU2MjUsIDI5LjI1KSIgc3R5bGU9IiI+PGZvcmVpZ25PYmplY3Qgd2lkdGg9IjQyLjA0Njg3NSIgaGVpZ2h0PSIyMSI+PGRpdiB4bWxucz0iaHR0cDovL3d3dy53My5vcmcvMTk5OS94aHRtbCIgc3R5bGU9ImRpc3BsYXk6IHRhYmxlLWNlbGw7IHdoaXRlLXNwYWNlOiBub3JtYWw7IGxpbmUtaGVpZ2h0OiAxLjU7IG1heC13aWR0aDogMTU0cHg7IHRleHQtYWxpZ246IHN0YXJ0OyI+PHNwYW4gY2xhc3M9Im5vZGVMYWJlbCI+PHA+ZG91YmxlPC9wPjwvc3Bhbj48L2Rpdj48L2ZvcmVpZ25PYmplY3Q+PC9nPjxnIGNsYXNzPSJsYWJlbCBhdHRyaWJ1dGUtbmFtZSIgdHJhbnNmb3JtPSJ0cmFuc2xhdGUoLTM2LjU1NDY4NzUsIDI5LjI1KSIgc3R5bGU9IiI+PGZvcmVpZ25PYmplY3Qgd2lkdGg9IjU4LjM1MTU2MjUiIGhlaWdodD0iMjEiPjxkaXYgeG1sbnM9Imh0dHA6Ly93d3cudzMub3JnLzE5OTkveGh0bWwiIHN0eWxlPSJkaXNwbGF5OiB0YWJsZS1jZWxsOyB3aGl0ZS1zcGFjZTogbm9ybWFsOyBsaW5lLWhlaWdodDogMS41OyBtYXgtd2lkdGg6IDE3N3B4OyB0ZXh0LWFsaWduOiBzdGFydDsiPjxzcGFuIGNsYXNzPSJub2RlTGFiZWwiPjxwPml0ZW1QcmljZTwvcD48L3NwYW4+PC9kaXY+PC9mb3JlaWduT2JqZWN0PjwvZz48ZyBjbGFzcz0ibGFiZWwgYXR0cmlidXRlLWtleXMiIHRyYW5zZm9ybT0idHJhbnNsYXRlKDg0LjkyMTg3NSwgMjkuMjUpIiBzdHlsZT0iIj48Zm9yZWlnbk9iamVjdCB3aWR0aD0iMCIgaGVpZ2h0PSIwIj48ZGl2IHhtbG5zPSJodHRwOi8vd3d3LnczLm9yZy8xOTk5L3hodG1sIiBzdHlsZT0iZGlzcGxheTogdGFibGUtY2VsbDsgd2hpdGUtc3BhY2U6IG5vcm1hbDsgbGluZS1oZWlnaHQ6IDEuNTsgbWF4LXdpZHRoOiAxMDBweDsgdGV4dC1hbGlnbjogc3RhcnQ7Ij48c3BhbiBjbGFzcz0ibm9kZUxhYmVsIj48L3NwYW4+PC9kaXY+PC9mb3JlaWduT2JqZWN0PjwvZz48ZyBjbGFzcz0ibGFiZWwgYXR0cmlidXRlLWNvbW1lbnQiIHRyYW5zZm9ybT0idHJhbnNsYXRlKDEyOC42MDE1NjI1LCAyOS4yNSkiIHN0eWxlPSIiPjxmb3JlaWduT2JqZWN0IHdpZHRoPSIwIiBoZWlnaHQ9IjAiPjxkaXYgeG1sbnM9Imh0dHA6Ly93d3cudzMub3JnLzE5OTkveGh0bWwiIHN0eWxlPSJkaXNwbGF5OiB0YWJsZS1jZWxsOyB3aGl0ZS1zcGFjZTogbm9ybWFsOyBsaW5lLWhlaWdodDogMS41OyBtYXgtd2lkdGg6IDEwMHB4OyB0ZXh0LWFsaWduOiBzdGFydDsiPjxzcGFuIGNsYXNzPSJub2RlTGFiZWwiPjwvc3Bhbj48L2Rpdj48L2ZvcmVpZ25PYmplY3Q+PC9nPjxnIGNsYXNzPSJsYWJlbCBhdHRyaWJ1dGUtdHlwZSIgdHJhbnNmb3JtPSJ0cmFuc2xhdGUoLTEwMy42MDE1NjI1LCA2OSkiIHN0eWxlPSIiPjxmb3JlaWduT2JqZWN0IHdpZHRoPSIzNC4yMzQzNzUiIGhlaWdodD0iMjEiPjxkaXYgeG1sbnM9Imh0dHA6Ly93d3cudzMub3JnLzE5OTkveGh0bWwiIHN0eWxlPSJkaXNwbGF5OiB0YWJsZS1jZWxsOyB3aGl0ZS1zcGFjZTogbm9ybWFsOyBsaW5lLWhlaWdodDogMS41OyBtYXgtd2lkdGg6IDE0OHB4OyB0ZXh0LWFsaWduOiBzdGFydDsiPjxzcGFuIGNsYXNzPSJub2RlTGFiZWwiPjxwPnN0cmluZzwvcD48L3NwYW4+PC9kaXY+PC9mb3JlaWduT2JqZWN0PjwvZz48ZyBjbGFzcz0ibGFiZWwgYXR0cmlidXRlLW5hbWUiIHRyYW5zZm9ybT0idHJhbnNsYXRlKC0zNi41NTQ2ODc1LCA2OSkiIHN0eWxlPSIiPjxmb3JlaWduT2JqZWN0IHdpZHRoPSI1Mi4xMzI4MTI1IiBoZWlnaHQ9IjIxIj48ZGl2IHhtbG5zPSJodHRwOi8vd3d3LnczLm9yZy8xOTk5L3hodG1sIiBzdHlsZT0iZGlzcGxheTogdGFibGUtY2VsbDsgd2hpdGUtc3BhY2U6IG5vcm1hbDsgbGluZS1oZWlnaHQ6IDEuNTsgbWF4LXdpZHRoOiAxNzBweDsgdGV4dC1hbGlnbjogc3RhcnQ7Ij48c3BhbiBjbGFzcz0ibm9kZUxhYmVsIj48cD5pdGVtTGluazwvcD48L3NwYW4+PC9kaXY+PC9mb3JlaWduT2JqZWN0PjwvZz48ZyBjbGFzcz0ibGFiZWwgYXR0cmlidXRlLWtleXMiIHRyYW5zZm9ybT0idHJhbnNsYXRlKDg0LjkyMTg3NSwgNjkpIiBzdHlsZT0iIj48Zm9yZWlnbk9iamVjdCB3aWR0aD0iMCIgaGVpZ2h0PSIwIj48ZGl2IHhtbG5zPSJodHRwOi8vd3d3LnczLm9yZy8xOTk5L3hodG1sIiBzdHlsZT0iZGlzcGxheTogdGFibGUtY2VsbDsgd2hpdGUtc3BhY2U6IG5vcm1hbDsgbGluZS1oZWlnaHQ6IDEuNTsgbWF4LXdpZHRoOiAxMDBweDsgdGV4dC1hbGlnbjogc3RhcnQ7Ij48c3BhbiBjbGFzcz0ibm9kZUxhYmVsIj48L3NwYW4+PC9kaXY+PC9mb3JlaWduT2JqZWN0PjwvZz48ZyBjbGFzcz0ibGFiZWwgYXR0cmlidXRlLWNvbW1lbnQiIHRyYW5zZm9ybT0idHJhbnNsYXRlKDEyOC42MDE1NjI1LCA2OSkiIHN0eWxlPSIiPjxmb3JlaWduT2JqZWN0IHdpZHRoPSIwIiBoZWlnaHQ9IjAiPjxkaXYgeG1sbnM9Imh0dHA6Ly93d3cudzMub3JnLzE5OTkveGh0bWwiIHN0eWxlPSJkaXNwbGF5OiB0YWJsZS1jZWxsOyB3aGl0ZS1zcGFjZTogbm9ybWFsOyBsaW5lLWhlaWdodDogMS41OyBtYXgtd2lkdGg6IDEwMHB4OyB0ZXh0LWFsaWduOiBzdGFydDsiPjxzcGFuIGNsYXNzPSJub2RlTGFiZWwiPjwvc3Bhbj48L2Rpdj48L2ZvcmVpZ25PYmplY3Q+PC9nPjxnIGNsYXNzPSJsYWJlbCBhdHRyaWJ1dGUtdHlwZSIgdHJhbnNmb3JtPSJ0cmFuc2xhdGUoLTEwMy42MDE1NjI1LCAxMDguNzUpIiBzdHlsZT0iIj48Zm9yZWlnbk9iamVjdCB3aWR0aD0iMTQuNzg5MDYyNSIgaGVpZ2h0PSIyMSI+PGRpdiB4bWxucz0iaHR0cDovL3d3dy53My5vcmcvMTk5OS94aHRtbCIgc3R5bGU9ImRpc3BsYXk6IHRhYmxlLWNlbGw7IHdoaXRlLXNwYWNlOiBub3JtYWw7IGxpbmUtaGVpZ2h0OiAxLjU7IG1heC13aWR0aDogMTIzcHg7IHRleHQtYWxpZ246IHN0YXJ0OyI+PHNwYW4gY2xhc3M9Im5vZGVMYWJlbCI+PHA+aW50PC9wPjwvc3Bhbj48L2Rpdj48L2ZvcmVpZ25PYmplY3Q+PC9nPjxnIGNsYXNzPSJsYWJlbCBhdHRyaWJ1dGUtbmFtZSIgdHJhbnNmb3JtPSJ0cmFuc2xhdGUoLTM2LjU1NDY4NzUsIDEwOC43NSkiIHN0eWxlPSIiPjxmb3JlaWduT2JqZWN0IHdpZHRoPSI2MS40Njg3NSIgaGVpZ2h0PSIyMSI+PGRpdiB4bWxucz0iaHR0cDovL3d3dy53My5vcmcvMTk5OS94aHRtbCIgc3R5bGU9ImRpc3BsYXk6IHRhYmxlLWNlbGw7IHdoaXRlLXNwYWNlOiBub3JtYWw7IGxpbmUtaGVpZ2h0OiAxLjU7IG1heC13aWR0aDogMTg1cHg7IHRleHQtYWxpZ246IHN0YXJ0OyI+PHNwYW4gY2xhc3M9Im5vZGVMYWJlbCI+PHA+d2lzaExpc3RJZDwvcD48L3NwYW4+PC9kaXY+PC9mb3JlaWduT2JqZWN0PjwvZz48ZyBjbGFzcz0ibGFiZWwgYXR0cmlidXRlLWtleXMiIHRyYW5zZm9ybT0idHJhbnNsYXRlKDg0LjkyMTg3NSwgMTA4Ljc1KSIgc3R5bGU9IiI+PGZvcmVpZ25PYmplY3Qgd2lkdGg9IjE3Ljg5MDYyNSIgaGVpZ2h0PSIyMSI+PGRpdiB4bWxucz0iaHR0cDovL3d3dy53My5vcmcvMTk5OS94aHRtbCIgc3R5bGU9ImRpc3BsYXk6IHRhYmxlLWNlbGw7IHdoaXRlLXNwYWNlOiBub3JtYWw7IGxpbmUtaGVpZ2h0OiAxLjU7IG1heC13aWR0aDogMTE4cHg7IHRleHQtYWxpZ246IHN0YXJ0OyI+PHNwYW4gY2xhc3M9Im5vZGVMYWJlbCI+PHA+Rks8L3A+PC9zcGFuPjwvZGl2PjwvZm9yZWlnbk9iamVjdD48L2c+PGcgY2xhc3M9ImxhYmVsIGF0dHJpYnV0ZS1jb21tZW50IiB0cmFuc2Zvcm09InRyYW5zbGF0ZSgxMjguNjAxNTYyNSwgMTA4Ljc1KSIgc3R5bGU9IiI+PGZvcmVpZ25PYmplY3Qgd2lkdGg9IjAiIGhlaWdodD0iMCI+PGRpdiB4bWxucz0iaHR0cDovL3d3dy53My5vcmcvMTk5OS94aHRtbCIgc3R5bGU9ImRpc3BsYXk6IHRhYmxlLWNlbGw7IHdoaXRlLXNwYWNlOiBub3JtYWw7IGxpbmUtaGVpZ2h0OiAxLjU7IG1heC13aWR0aDogMTAwcHg7IHRleHQtYWxpZ246IHN0YXJ0OyI+PHNwYW4gY2xhc3M9Im5vZGVMYWJlbCI+PC9zcGFuPjwvZGl2PjwvZm9yZWlnbk9iamVjdD48L2c+PGcgY2xhc3M9ImRpdmlkZXIiPjxwYXRoIGQ9Ik0tMTE2LjEwMTU2MjUgLTk5LjM3NSBDLTM5LjI4OTIyNzE3MDYwODc3IC05OS4zNzUsIDM3LjUyMzEwODE1ODc4MjQ2IC05OS4zNzUsIDExNi4xMDE1NjI1IC05OS4zNzUgTS0xMTYuMTAxNTYyNSAtOTkuMzc1IEMtMjYuMDc3ODU1ODMxMTA1ODkzIC05OS4zNzUsIDYzLjk0NTg1MDgzNzc4ODIxNCAtOTkuMzc1LCAxMTYuMTAxNTYyNSAtOTkuMzc1IiBzdHJva2U9IiMwMDAwMDAiIHN0cm9rZS13aWR0aD0iMS4zIiBmaWxsPSJub25lIi8+PC9nPjxnIGNsYXNzPSJkaXZpZGVyIj48cGF0aCBkPSJNLTQ5LjA1NDY4NzUgLTk5LjM3NSBDLTQ5LjA1NDY4NzUgLTUwLjEzNDQ5NTAxMjg5NDk2LCAtNDkuMDU0Njg3NSAtMC44OTM5OTAwMjU3ODk5MTgzLCAtNDkuMDU0Njg3NSAxMzkuMTI1IE0tNDkuMDU0Njg3NSAtOTkuMzc1IEMtNDkuMDU0Njg3NSAtNDEuMjg0MDg2NjY3NjI5NzQsIC00OS4wNTQ2ODc1IDE2LjgwNjgyNjY2NDc0MDUyNywgLTQ5LjA1NDY4NzUgMTM5LjEyNSIgc3Ryb2tlPSIjMDAwMDAwIiBzdHJva2Utd2lkdGg9IjEuMyIgZmlsbD0ibm9uZSIvPjwvZz48ZyBjbGFzcz0iZGl2aWRlciI+PHBhdGggZD0iTTcyLjQyMTg3NSAtOTkuMzc1IEM3Mi40MjE4NzUgLTIzLjQ0NTg5MDY4OTkzMTIwNCwgNzIuNDIxODc1IDUyLjQ4MzIxODYyMDEzNzU5LCA3Mi40MjE4NzUgMTM5LjEyNSBNNzIuNDIxODc1IC05OS4zNzUgQzcyLjQyMTg3NSAtNDMuNDM3OTAyNjQ0MTAyMjIsIDcyLjQyMTg3NSAxMi40OTkxOTQ3MTE3OTU1NTMsIDcyLjQyMTg3NSAxMzkuMTI1IiBzdHJva2U9IiMwMDAwMDAiIHN0cm9rZS13aWR0aD0iMS4zIiBmaWxsPSJub25lIi8+PC9nPjxnIGNsYXNzPSJkaXZpZGVyIj48cGF0aCBkPSJNLTExNi4xMDE1NjI1IC01OS42MjUgQy02Mi45NjkxMjYyMDA2NjAzMyAtNTkuNjI1LCAtOS44MzY2ODk5MDEzMjA2NTMgLTU5LjYyNSwgMTE2LjEwMTU2MjUgLTU5LjYyNSBNLTExNi4xMDE1NjI1IC01OS42MjUgQy01OC40NTk2Nzg4MzY4MTM2OSAtNTkuNjI1LCAtMC44MTc3OTUxNzM2MjczNzQxIC01OS42MjUsIDExNi4xMDE1NjI1IC01OS42MjUiIHN0cm9rZT0iIzAwMDAwMCIgc3Ryb2tlLXdpZHRoPSIxLjMiIGZpbGw9Im5vbmUiLz48L2c+PGcgY2xhc3M9ImRpdmlkZXIiPjxwYXRoIGQ9Ik0tMTE2LjEwMTU2MjUgLTE5Ljg3NSBDLTM1LjQ3OTg2ODg4MTQwMTIzIC0xOS44NzUsIDQ1LjE0MTgyNDczNzE5NzU0IC0xOS44NzUsIDExNi4xMDE1NjI1IC0xOS44NzUgTS0xMTYuMTAxNTYyNSAtMTkuODc1IEMtMzguODI1MjE3OTc1OTU3ODQgLTE5Ljg3NSwgMzguNDUxMTI2NTQ4MDg0MzIgLTE5Ljg3NSwgMTE2LjEwMTU2MjUgLTE5Ljg3NSIgc3Ryb2tlPSIjMDAwMDAwIiBzdHJva2Utd2lkdGg9IjEuMyIgZmlsbD0ibm9uZSIvPjwvZz48ZyBjbGFzcz0iZGl2aWRlciI+PHBhdGggZD0iTS0xMTYuMTAxNTYyNSAxOS44NzUgQy0zMS4yMDc4NzEyMTU5Mzk4MTggMTkuODc1LCA1My42ODU4MjAwNjgxMjAzNjQgMTkuODc1LCAxMTYuMTAxNTYyNSAxOS44NzUgTS0xMTYuMTAxNTYyNSAxOS44NzUgQy0zMC4wNDMwODY4NTcyODY0ODIgMTkuODc1LCA1Ni4wMTUzODg3ODU0MjcwMzUgMTkuODc1LCAxMTYuMTAxNTYyNSAxOS44NzUiIHN0cm9rZT0iIzAwMDAwMCIgc3Ryb2tlLXdpZHRoPSIxLjMiIGZpbGw9Im5vbmUiLz48L2c+PGcgY2xhc3M9ImRpdmlkZXIiPjxwYXRoIGQ9Ik0tMTE2LjEwMTU2MjUgNTkuNjI1IEMtNTMuNTIxNzk5ODM2NjkxMTcgNTkuNjI1LCA5LjA1Nzk2MjgyNjYxNzY1NCA1OS42MjUsIDExNi4xMDE1NjI1IDU5LjYyNSBNLTExNi4xMDE1NjI1IDU5LjYyNSBDLTMxLjU0MTQ4MjMxOTEwMTk0NSA1OS42MjUsIDUzLjAxODU5Nzg2MTc5NjExIDU5LjYyNSwgMTE2LjEwMTU2MjUgNTkuNjI1IiBzdHJva2U9IiMwMDAwMDAiIHN0cm9rZS13aWR0aD0iMS4zIiBmaWxsPSJub25lIi8+PC9nPjxnIGNsYXNzPSJkaXZpZGVyIj48cGF0aCBkPSJNLTExNi4xMDE1NjI1IDk5LjM3NSBDLTM4LjQ5NjY0NTkwODQzMjI0IDk5LjM3NSwgMzkuMTA4MjcwNjgzMTM1NTE1IDk5LjM3NSwgMTE2LjEwMTU2MjUgOTkuMzc1IE0tMTE2LjEwMTU2MjUgOTkuMzc1IEMtNjEuMjI0MjQzNTY1ODgyOTggOTkuMzc1LCAtNi4zNDY5MjQ2MzE3NjU5NTggOTkuMzc1LCAxMTYuMTAxNTYyNSA5OS4zNzUiIHN0cm9rZT0iIzAwMDAwMCIgc3Ryb2tlLXdpZHRoPSIxLjMiIGZpbGw9Im5vbmUiLz48L2c+PGcgY2xhc3M9ImRpdmlkZXIiPjxwYXRoIGQ9Ik0tMTE2LjEwMTU2MjUgLTk5LjM3NSBDLTUzLjIyMjc2MzkwOTc1Mzc5NSAtOTkuMzc1LCA5LjY1NjAzNDY4MDQ5MjQxIC05OS4zNzUsIDExNi4xMDE1NjI1IC05OS4zNzUgTS0xMTYuMTAxNTYyNSAtOTkuMzc1IEMtMjQuOTQ0ODkwOTQ2MDA1OTcgLTk5LjM3NSwgNjYuMjExNzgwNjA3OTg4MDYgLTk5LjM3NSwgMTE2LjEwMTU2MjUgLTk5LjM3NSIgc3Ryb2tlPSIjMDAwMDAwIiBzdHJva2Utd2lkdGg9IjEuMyIgZmlsbD0ibm9uZSIvPjwvZz48L2c+PC9nPjwvZz48L2c+PGRlZnM+PGZpbHRlciBpZD0iZHJvcC1zaGFkb3ciIGhlaWdodD0iMTMwJSIgd2lkdGg9IjEzMCUiPjxmZURyb3BTaGFkb3cgZHg9IjQiIGR5PSI0IiBzdGREZXZpYXRpb249IjAiIGZsb29kLW9wYWNpdHk9IjAuMDYiIGZsb29kLWNvbG9yPSIjRkZGRkZGIi8+PC9maWx0ZXI+PC9kZWZzPjxkZWZzPjxmaWx0ZXIgaWQ9ImRyb3Atc2hhZG93LXNtYWxsIiBoZWlnaHQ9IjE1MCUiIHdpZHRoPSIxNTAlIj48ZmVEcm9wU2hhZG93IGR4PSIyIiBkeT0iMiIgc3RkRGV2aWF0aW9uPSIwIiBmbG9vZC1vcGFjaXR5PSIwLjA2IiBmbG9vZC1jb2xvcj0iI0ZGRkZGRiIvPjwvZmlsdGVyPjwvZGVmcz48bGluZWFyR3JhZGllbnQgaWQ9ImV4cG9ydC1zdmctZ3JhZGllbnQiIGdyYWRpZW50VW5pdHM9Im9iamVjdEJvdW5kaW5nQm94IiB4MT0iMCUiIHkxPSIwJSIgeDI9IjEwMCUiIHkyPSIwJSI+PHN0b3Agb2Zmc2V0PSIwJSIgc3RvcC1jb2xvcj0iIzAwNDJlYiIgc3RvcC1vcGFjaXR5PSIxIi8+PHN0b3Agb2Zmc2V0PSIxMDAlIiBzdG9wLWNvbG9yPSIjZWIwMDQyIiBzdG9wLW9wYWNpdHk9IjEiLz48L2xpbmVhckdyYWRpZW50Pjwvc3ZnPg==;" vertex="1" parent="1">
          <mxGeometry x="-44" y="-60" width="916" height="335" as="geometry" />
        </mxCell>
      </root>
    </mxGraphModel>
  </diagram>
</mxfile>
